<svg width="538" height="905" viewBox="0 0 538 905" fill="none" xmlns="http://www.w3.org/2000/svg">
<path d="M361 598L360.424 597.182C360.361 597.227 360.303 597.279 360.251 597.337L361 598ZM454.026 904.88C454.512 905.142 455.119 904.96 455.38 904.474C455.642 903.988 455.46 903.381 454.974 903.12L454.026 904.88ZM7.574 5.64796C8.0778 5.87425 8.66965 5.64928 8.89594 5.14548C9.12222 4.64168 8.89725 4.04983 8.39345 3.82354L7.574 5.64796ZM21.9384 9.19256C21.418 9.00748 20.8462 9.27927 20.6611 9.79962C20.476 10.32 20.7478 10.8918 21.2682 11.0769L21.9384 9.19256ZM35.1252 15.6062C35.654 15.7656 36.2119 15.4662 36.3713 14.9375C36.5308 14.4087 36.2314 13.8508 35.7027 13.6913L35.1252 15.6062ZM49.7268 17.6311C49.1926 17.4911 48.646 17.8107 48.506 18.3449C48.3659 18.8792 48.6855 19.4258 49.2197 19.5658L49.7268 17.6311ZM63.4862 23.0737C64.0243 23.1978 64.5613 22.8623 64.6855 22.3241C64.8097 21.786 64.4741 21.2491 63.936 21.1249L63.4862 23.0737ZM78.1238 24.2114C77.5827 24.1004 77.0542 24.4491 76.9433 24.9901C76.8323 25.5311 77.181 26.0597 77.722 26.1706L78.1238 24.2114ZM92.1421 28.9636C92.6854 29.063 93.2063 28.7031 93.3057 28.1598C93.405 27.6166 93.0452 27.0956 92.5019 26.9963L92.1421 28.9636ZM106.875 29.4834C106.33 29.3942 105.816 29.7637 105.727 30.3088C105.637 30.8538 106.007 31.3679 106.552 31.4571L106.875 29.4834ZM120.969 33.6907C121.515 33.7708 122.023 33.3927 122.103 32.8463C122.183 32.2998 121.805 31.7919 121.259 31.7118L120.969 33.6907ZM135.701 33.7158C135.154 33.6439 134.652 34.0296 134.58 34.5772C134.508 35.1247 134.893 35.6269 135.441 35.6988L135.701 33.7158ZM149.953 37.5002C150.502 37.5646 150.999 37.1721 151.063 36.6235C151.127 36.075 150.735 35.5782 150.186 35.5139L149.953 37.5002ZM164.711 37.1232C164.161 37.0658 163.669 37.4645 163.612 38.0138C163.555 38.5631 163.953 39.0549 164.503 39.1124L164.711 37.1232ZM179.094 40.5504C179.644 40.6013 180.132 40.1969 180.183 39.647C180.234 39.097 179.829 38.6099 179.279 38.5589L179.094 40.5504ZM193.798 39.8256C193.248 39.7805 192.765 40.1902 192.72 40.7406C192.675 41.2911 193.084 41.7738 193.635 41.8189L193.798 39.8256ZM208.15 42.9334C208.701 42.9729 209.18 42.5584 209.219 42.0075C209.259 41.4567 208.844 40.9781 208.293 40.9385L208.15 42.9334ZM222.84 41.9133C222.289 41.8789 221.814 42.2979 221.78 42.8491C221.746 43.4003 222.165 43.875 222.716 43.9094L222.84 41.9133ZM237.354 44.7558C237.905 44.7853 238.376 44.3621 238.406 43.8106C238.435 43.2591 238.012 42.7881 237.46 42.7587L237.354 44.7558ZM252.077 43.4773C251.526 43.4525 251.058 43.8796 251.033 44.4313C251.009 44.9831 251.436 45.4505 251.987 45.4753L252.077 43.4773ZM266.506 46.0711C267.058 46.0916 267.522 45.6608 267.543 45.1089C267.563 44.557 267.132 44.0929 266.581 44.0724L266.506 46.0711ZM281.201 44.5599C280.649 44.5435 280.188 44.9778 280.172 45.5299C280.155 46.0819 280.589 46.5427 281.142 46.559L281.201 44.5599ZM295.802 46.9403C296.354 46.9527 296.811 46.5152 296.824 45.963C296.836 45.4109 296.399 44.9532 295.846 44.9408L295.802 46.9403ZM310.357 45.2174C309.805 45.2088 309.35 45.6494 309.341 46.2016C309.333 46.7538 309.773 47.2085 310.326 47.2172L310.357 45.2174ZM325.018 47.3999C325.571 47.405 326.022 46.9614 326.027 46.4092C326.033 45.8569 325.589 45.4051 325.037 45.4L325.018 47.3999ZM339.58 45.4888C339.027 45.4871 338.578 45.9334 338.577 46.4857C338.575 47.038 339.021 47.4871 339.574 47.4887L339.58 45.4888ZM354.381 47.6836C354.932 47.7111 355.402 47.2863 355.429 46.7347C355.457 46.1831 355.032 45.7136 354.48 45.6861L354.381 47.6836ZM369.269 47.1636C368.723 47.0814 368.214 47.4575 368.132 48.0036C368.049 48.5498 368.426 49.0591 368.972 49.1413L369.269 47.1636ZM383.353 52.0411C383.888 52.1768 384.432 51.8528 384.568 51.3175C384.704 50.7822 384.38 50.2381 383.845 50.1024L383.353 52.0411ZM398.071 54.4555C397.552 54.2687 396.979 54.5386 396.792 55.0583C396.605 55.578 396.875 56.1508 397.395 56.3376L398.071 54.4555ZM410.967 61.9495C411.467 62.184 412.063 61.9687 412.297 61.4686C412.532 60.9685 412.316 60.3731 411.816 60.1387L410.967 61.9495ZM424.975 67.0439C424.498 66.766 423.885 66.9275 423.607 67.4048C423.329 67.882 423.491 68.4942 423.968 68.7722L424.975 67.0439ZM436.333 76.697C436.785 77.0142 437.409 76.9047 437.726 76.4526C438.043 76.0005 437.934 75.3768 437.482 75.0597L436.333 76.697ZM449.291 84.0732C448.865 83.7211 448.235 83.7805 447.883 84.206C447.531 84.6314 447.59 85.2618 448.016 85.6139L449.291 84.0732ZM458.985 95.4172C459.383 95.8003 460.016 95.7883 460.399 95.3905C460.782 94.9927 460.77 94.3596 460.372 93.9765L458.985 95.4172ZM470.709 104.669C470.34 104.259 469.707 104.226 469.297 104.596C468.887 104.965 468.854 105.598 469.224 106.008L470.709 104.669ZM478.702 117.272C479.043 117.706 479.672 117.781 480.106 117.44C480.54 117.098 480.615 116.47 480.274 116.036L478.702 117.272ZM489.057 127.974C488.744 127.519 488.121 127.404 487.667 127.718C487.212 128.031 487.097 128.653 487.41 129.108L489.057 127.974ZM495.378 141.478C495.663 141.951 496.278 142.103 496.751 141.818C497.224 141.533 497.377 140.919 497.092 140.446L495.378 141.478ZM504.382 153.387C504.125 152.899 503.52 152.711 503.031 152.968C502.543 153.225 502.355 153.83 502.612 154.318L504.382 153.387ZM509.114 167.573C509.343 168.075 509.936 168.296 510.439 168.067C510.941 167.838 511.162 167.244 510.933 166.742L509.114 167.573ZM516.715 180.37C516.513 179.856 515.932 179.603 515.418 179.805C514.904 180.007 514.651 180.587 514.853 181.101L516.715 180.37ZM519.876 194.937C520.051 195.461 520.618 195.744 521.142 195.569C521.665 195.394 521.948 194.828 521.773 194.304L519.876 194.937ZM526.115 208.506C525.967 207.974 525.416 207.663 524.884 207.811C524.352 207.959 524.04 208.51 524.188 209.042L526.115 208.506ZM527.784 223.35C527.906 223.889 528.441 224.227 528.98 224.106C529.518 223.985 529.857 223.45 529.736 222.911L527.784 223.35ZM532.632 237.425C532.537 236.881 532.019 236.517 531.475 236.612C530.931 236.707 530.567 237.225 530.662 237.769L532.632 237.425ZM532.843 252.345C532.912 252.893 533.412 253.282 533.96 253.213C534.508 253.144 534.897 252.645 534.828 252.096L532.843 252.345ZM536.324 266.893C536.282 266.342 535.801 265.93 535.25 265.973C534.7 266.016 534.288 266.496 534.33 267.047L536.324 266.893ZM535.119 281.722C535.135 282.274 535.597 282.708 536.149 282.692C536.701 282.675 537.135 282.214 537.118 281.662L535.119 281.722ZM537.224 296.487C537.233 295.935 536.793 295.48 536.24 295.471C535.688 295.462 535.233 295.903 535.224 296.455L537.224 296.487ZM534.648 311.225C534.614 311.777 535.033 312.251 535.585 312.285C536.136 312.32 536.61 311.9 536.645 311.349L534.648 311.225ZM535.394 326.082C535.453 325.532 535.056 325.039 534.507 324.98C533.958 324.921 533.465 325.318 533.406 325.867L535.394 326.082ZM531.497 340.48C531.413 341.026 531.788 341.536 532.333 341.62C532.879 341.704 533.39 341.33 533.474 340.784L531.497 340.48ZM530.887 355.427C530.995 354.885 530.644 354.358 530.102 354.25C529.561 354.142 529.034 354.493 528.926 355.035L530.887 355.427ZM525.73 369.371C525.598 369.907 525.926 370.449 526.462 370.581C526.999 370.713 527.54 370.385 527.672 369.849L525.73 369.371ZM523.808 384.183C523.964 383.653 523.66 383.097 523.13 382.942C522.6 382.787 522.044 383.09 521.889 383.62L523.808 384.183ZM517.435 397.674C517.256 398.197 517.536 398.765 518.058 398.943C518.581 399.121 519.149 398.842 519.328 398.319L517.435 397.674ZM514.255 412.217C514.455 411.703 514.2 411.123 513.686 410.923C513.171 410.722 512.591 410.977 512.391 411.492L514.255 412.217ZM506.724 425.179C506.502 425.685 506.732 426.275 507.238 426.497C507.744 426.719 508.333 426.489 508.555 425.983L506.724 425.179ZM502.349 439.359C502.592 438.863 502.387 438.264 501.891 438.021C501.395 437.778 500.796 437.984 500.553 438.48L502.349 439.359ZM493.789 451.615C493.526 452.1 493.707 452.707 494.192 452.97C494.678 453.233 495.285 453.052 495.548 452.566L493.789 451.615ZM488.244 465.44C488.526 464.965 488.37 464.352 487.895 464.07C487.42 463.788 486.807 463.944 486.525 464.419L488.244 465.44ZM478.752 476.936C478.452 477.399 478.584 478.019 479.047 478.319C479.511 478.619 480.13 478.487 480.43 478.024L478.752 476.936ZM472.112 490.327C472.43 489.875 472.322 489.251 471.87 488.933C471.419 488.615 470.795 488.724 470.477 489.175L472.112 490.327ZM461.79 501.028C461.456 501.468 461.541 502.095 461.98 502.43C462.419 502.764 463.047 502.68 463.381 502.24L461.79 501.028ZM454.142 513.916C454.492 513.489 454.431 512.859 454.004 512.509C453.577 512.158 452.947 512.22 452.596 512.647L454.142 513.916ZM443.089 523.81C442.724 524.224 442.763 524.856 443.177 525.222C443.591 525.587 444.223 525.548 444.589 525.133L443.089 523.81ZM434.529 536.141C434.908 535.74 434.891 535.107 434.49 534.727C434.088 534.347 433.455 534.365 433.076 534.766L434.529 536.141ZM422.835 545.234C422.442 545.622 422.438 546.255 422.827 546.648C423.215 547.041 423.848 547.044 424.241 546.656L422.835 545.234ZM413.466 556.967C413.871 556.591 413.895 555.959 413.52 555.554C413.145 555.148 412.512 555.124 412.107 555.499L413.466 556.967ZM401.207 565.283C400.79 565.645 400.746 566.277 401.109 566.693C401.471 567.11 402.103 567.154 402.519 566.792L401.207 565.283ZM391.136 576.391C391.563 576.042 391.626 575.411 391.277 574.984C390.927 574.556 390.297 574.493 389.87 574.843L391.136 576.391ZM378.37 583.966C377.933 584.303 377.851 584.931 378.188 585.369C378.525 585.806 379.153 585.888 379.591 585.551L378.37 583.966ZM367.703 594.437C368.15 594.112 368.25 593.487 367.925 593.04C367.601 592.593 366.975 592.494 366.528 592.818L367.703 594.437ZM355.179 603.18C354.821 603.601 354.871 604.232 355.292 604.59C355.713 604.948 356.344 604.897 356.702 604.477L355.179 603.18ZM347.225 616.073C347.565 615.638 347.489 615.01 347.054 614.67C346.619 614.329 345.991 614.406 345.65 614.841L347.225 616.073ZM336.623 626.933C336.303 627.384 336.409 628.008 336.859 628.328C337.31 628.647 337.934 628.542 338.254 628.091L336.623 626.933ZM329.839 640.637C330.134 640.17 329.994 639.553 329.527 639.258C329.06 638.963 328.442 639.103 328.148 639.57L329.839 640.637ZM320.44 652.648C320.175 653.133 320.353 653.74 320.837 654.005C321.322 654.27 321.93 654.093 322.195 653.608L320.44 652.648ZM315.452 667.032C315.682 666.53 315.461 665.937 314.958 665.707C314.456 665.478 313.863 665.699 313.633 666.201L315.452 667.032ZM307.897 680.235C307.71 680.755 307.979 681.328 308.499 681.515C309.018 681.702 309.591 681.432 309.778 680.913L307.897 680.235ZM305.368 695.214C305.505 694.679 305.183 694.134 304.648 693.997C304.113 693.86 303.568 694.183 303.431 694.718L305.368 695.214ZM300.442 709.613C300.363 710.16 300.742 710.667 301.289 710.746C301.835 710.825 302.342 710.446 302.421 709.899L300.442 709.613ZM301.143 724.849C301.157 724.297 300.721 723.838 300.169 723.823C299.617 723.809 299.157 724.245 299.143 724.798L301.143 724.849ZM299.693 739.996C299.748 740.546 300.237 740.947 300.787 740.893C301.336 740.838 301.738 740.348 301.683 739.799L299.693 739.996ZM304.087 754.544C303.964 754.005 303.428 753.669 302.89 753.791C302.351 753.914 302.014 754.45 302.137 754.989L304.087 754.544ZM306.426 769.595C306.613 770.114 307.186 770.384 307.706 770.196C308.225 770.009 308.495 769.436 308.308 768.917L306.426 769.595ZM314.18 782.696C313.936 782.2 313.337 781.997 312.841 782.241C312.346 782.486 312.142 783.085 312.387 783.58L314.18 782.696ZM319.801 796.845C320.094 797.313 320.711 797.456 321.179 797.163C321.647 796.87 321.789 796.253 321.496 795.784L319.801 796.845ZM330.022 808.131C329.688 807.69 329.061 807.603 328.621 807.936C328.18 808.27 328.093 808.897 328.426 809.337L330.022 808.131ZM338.053 821.077C338.419 821.49 339.051 821.529 339.464 821.163C339.878 820.797 339.917 820.165 339.551 819.751L338.053 821.077ZM349.888 830.668C349.495 830.279 348.862 830.282 348.473 830.675C348.085 831.067 348.088 831.7 348.48 832.089L349.888 830.668ZM359.558 842.436C359.972 842.801 360.604 842.762 360.969 842.348C361.335 841.934 361.296 841.302 360.882 840.937L359.558 842.436ZM372.412 850.618C371.98 850.273 371.351 850.343 371.006 850.775C370.661 851.206 370.731 851.835 371.162 852.18L372.412 850.618ZM383.194 861.383C383.639 861.71 384.265 861.613 384.592 861.168C384.918 860.722 384.822 860.097 384.376 859.77L383.194 861.383ZM396.699 868.452C396.242 868.142 395.62 868.261 395.31 868.718C395 869.175 395.119 869.797 395.576 870.107L396.699 868.452ZM408.228 878.397C408.694 878.692 409.312 878.554 409.608 878.087C409.903 877.621 409.765 877.003 409.298 876.707L408.228 878.397ZM422.154 884.612C421.68 884.329 421.066 884.484 420.782 884.958C420.499 885.432 420.654 886.046 421.128 886.329L422.154 884.612ZM434.203 893.941C434.683 894.214 435.294 894.046 435.567 893.566C435.839 893.086 435.671 892.475 435.191 892.202L434.203 893.941ZM448.373 899.54C447.888 899.275 447.281 899.454 447.016 899.938C446.751 900.423 446.93 901.031 447.414 901.295L448.373 899.54ZM1.49902 1.50061C0.97688 2.35347 0.977 2.35354 0.977128 2.35362C0.97718 2.35365 0.977315 2.35373 0.977421 2.3538C0.977631 2.35393 0.977872 2.35407 0.978143 2.35424C0.978684 2.35457 0.979347 2.35498 0.980131 2.35545C0.981699 2.35641 0.983751 2.35766 0.986291 2.3592C0.99137 2.36228 0.998397 2.36652 1.00739 2.37192C1.02537 2.38273 1.05121 2.39815 1.08504 2.41809C1.1527 2.45797 1.25233 2.51593 1.385 2.5912C1.65034 2.74174 2.04786 2.96151 2.58614 3.24431C3.66271 3.80991 5.30238 4.62765 7.574 5.64796L8.39345 3.82354C6.15804 2.8195 4.55536 2.01966 3.51633 1.47379C2.99682 1.20085 2.61823 0.991399 2.37191 0.851655C2.24875 0.781783 2.15867 0.729337 2.10057 0.695094C2.07152 0.677973 2.05047 0.665403 2.03728 0.65748C2.03069 0.653519 2.02606 0.650719 2.02338 0.649094C2.02204 0.648281 2.02118 0.647762 2.02082 0.647538C2.02063 0.647426 2.02057 0.647388 2.02063 0.647424C2.02066 0.647442 2.02072 0.647478 2.02081 0.647533C2.02085 0.64756 2.02094 0.647615 2.02096 0.647629C2.02106 0.647689 2.02117 0.647753 1.49902 1.50061ZM21.2682 11.0769C25.2226 12.4835 29.8225 14.0069 35.1252 15.6062L35.7027 13.6913C30.4301 12.1012 25.8611 10.5878 21.9384 9.19256L21.2682 11.0769ZM49.2197 19.5658C53.6219 20.7196 58.3713 21.8932 63.4862 23.0737L63.936 21.1249C58.8398 19.9487 54.1094 18.7798 49.7268 17.6311L49.2197 19.5658ZM77.722 26.1706C82.2868 27.1066 87.0905 28.0398 92.1421 28.9636L92.5019 26.9963C87.464 26.0749 82.6743 25.1445 78.1238 24.2114L77.722 26.1706ZM106.552 31.4571C111.175 32.2136 115.979 32.9594 120.969 33.6907L121.259 31.7118C116.28 30.9821 111.487 30.238 106.875 29.4834L106.552 31.4571ZM135.441 35.6988C140.13 36.3141 144.967 36.9154 149.953 37.5002L150.186 35.5139C145.208 34.9301 140.381 34.3299 135.701 33.7158L135.441 35.6988ZM164.503 39.1124C169.241 39.6076 174.105 40.0876 179.094 40.5504L179.279 38.5589C174.297 38.0968 169.442 37.6176 164.711 37.1232L164.503 39.1124ZM193.635 41.8189C198.367 42.2064 203.205 42.5783 208.15 42.9334L208.293 40.9385C203.354 40.5839 198.523 40.2125 193.798 39.8256L193.635 41.8189ZM222.716 43.9094C227.5 44.2076 232.379 44.4901 237.354 44.7558L237.46 42.7587C232.492 42.4933 227.619 42.2111 222.84 41.9133L222.716 43.9094ZM251.987 45.4753C256.744 45.6894 261.583 45.8882 266.506 46.0711L266.581 44.0724C261.663 43.8898 256.829 43.6911 252.077 43.4773L251.987 45.4753ZM281.142 46.559C285.952 46.7015 290.838 46.8288 295.802 46.9403L295.846 44.9408C290.888 44.8294 286.006 44.7022 281.201 44.5599L281.142 46.559ZM310.326 47.2172C315.153 47.2931 320.051 47.3542 325.018 47.3999L325.037 45.4C320.073 45.3543 315.18 45.2932 310.357 45.2174L310.326 47.2172ZM339.574 47.4887C342.033 47.4962 344.508 47.5 347 47.5V45.5C344.51 45.5 342.037 45.4962 339.58 45.4888L339.574 47.4887ZM347 47.5C349.473 47.5 351.933 47.5616 354.381 47.6836L354.48 45.6861C352 45.5624 349.506 45.5 347 45.5V47.5ZM368.972 49.1413C373.827 49.872 378.623 50.8417 383.353 52.0411L383.845 50.1024C379.051 48.887 374.19 47.9041 369.269 47.1636L368.972 49.1413ZM397.395 56.3376C401.994 57.9908 406.52 59.8646 410.967 61.9495L411.816 60.1387C407.314 58.0279 402.73 56.1301 398.071 54.4555L397.395 56.3376ZM423.968 68.7722C428.175 71.2223 432.299 73.867 436.333 76.697L437.482 75.0597C433.402 72.1981 429.231 69.523 424.975 67.0439L423.968 68.7722ZM448.016 85.6139C451.765 88.7173 455.424 91.9879 458.985 95.4172L460.372 93.9765C456.776 90.5132 453.08 87.2092 449.291 84.0732L448.016 85.6139ZM469.224 106.008C472.482 109.624 475.643 113.381 478.702 117.272L480.274 116.036C477.188 112.111 473.998 108.319 470.709 104.669L469.224 106.008ZM487.41 129.108C490.168 133.116 492.826 137.242 495.378 141.478L497.092 140.446C494.519 136.176 491.839 132.016 489.057 127.974L487.41 129.108ZM502.612 154.318C504.885 158.641 507.054 163.061 509.114 167.573L510.933 166.742C508.858 162.197 506.673 157.743 504.382 153.387L502.612 154.318ZM514.853 181.101C516.635 185.636 518.311 190.249 519.876 194.937L521.773 194.304C520.197 189.583 518.51 184.937 516.715 180.37L514.853 181.101ZM524.188 209.042C525.497 213.749 526.697 218.52 527.784 223.35L529.736 222.911C528.641 218.048 527.433 213.245 526.115 208.506L524.188 209.042ZM530.662 237.769C531.501 242.578 532.229 247.439 532.843 252.345L534.828 252.096C534.209 247.158 533.476 242.266 532.632 237.425L530.662 237.769ZM534.33 267.047C534.705 271.902 534.969 276.795 535.119 281.722L537.118 281.662C536.967 276.703 536.701 271.779 536.324 266.893L534.33 267.047ZM535.224 296.455C535.146 301.351 534.955 306.276 534.648 311.225L536.645 311.349C536.953 306.369 537.146 301.414 537.224 296.487L535.224 296.455ZM533.406 325.867C532.883 330.721 532.247 335.593 531.497 340.48L533.474 340.784C534.229 335.867 534.868 330.965 535.394 326.082L533.406 325.867ZM528.926 355.035C527.973 359.804 526.908 364.584 525.73 369.371L527.672 369.849C528.858 365.034 529.928 360.225 530.887 355.427L528.926 355.035ZM521.889 383.62C520.516 388.303 519.032 392.989 517.435 397.674L519.328 398.319C520.934 393.607 522.427 388.893 523.808 384.183L521.889 383.62ZM512.391 411.492C510.613 416.059 508.725 420.622 506.724 425.179L508.555 425.983C510.567 421.4 512.466 416.811 514.255 412.217L512.391 411.492ZM500.553 438.48C498.406 442.868 496.152 447.247 493.789 451.615L495.548 452.566C497.924 448.175 500.19 443.771 502.349 439.359L500.553 438.48ZM486.525 464.419C484.038 468.606 481.447 472.779 478.752 476.936L480.43 478.024C483.14 473.845 485.744 469.65 488.244 465.44L486.525 464.419ZM470.477 489.175C467.681 493.144 464.786 497.096 461.79 501.028L463.381 502.24C466.392 498.288 469.302 494.316 472.112 490.327L470.477 489.175ZM452.596 512.647C449.522 516.389 446.354 520.111 443.089 523.81L444.589 525.133C447.869 521.416 451.053 517.676 454.142 513.916L452.596 512.647ZM433.076 534.766C429.753 538.278 426.339 541.768 422.835 545.234L424.241 546.656C427.761 543.175 431.19 539.669 434.529 536.141L433.076 534.766ZM412.107 555.499C408.559 558.785 404.926 562.047 401.207 565.283L402.519 566.792C406.255 563.542 409.903 560.267 413.466 556.967L412.107 555.499ZM389.87 574.843C386.119 577.91 382.286 580.951 378.37 583.966L379.591 585.551C383.521 582.524 387.369 579.471 391.136 576.391L389.87 574.843ZM366.528 592.818C364.514 594.28 362.479 595.735 360.424 597.182L361.576 598.818C363.639 597.364 365.681 595.904 367.703 594.437L366.528 592.818ZM360.251 597.337C358.519 599.295 356.828 601.243 355.179 603.18L356.702 604.477C358.343 602.549 360.025 600.611 361.749 598.663L360.251 597.337ZM345.65 614.841C342.459 618.916 339.452 622.947 336.623 626.933L338.254 628.091C341.064 624.131 344.053 620.125 347.225 616.073L345.65 614.841ZM328.148 639.57C325.361 643.986 322.794 648.345 320.44 652.648L322.195 653.608C324.528 649.343 327.073 645.019 329.839 640.637L328.148 639.57ZM313.633 666.201C311.463 670.95 309.555 675.628 307.897 680.235L309.778 680.913C311.418 676.359 313.305 671.733 315.452 667.032L313.633 666.201ZM303.431 694.718C302.137 699.772 301.147 704.737 300.442 709.613L302.421 709.899C303.116 705.096 304.092 700.201 305.368 695.214L303.431 694.718ZM299.143 724.798C299.011 729.97 299.202 735.036 299.693 739.996L301.683 739.799C301.201 734.921 301.012 729.939 301.143 724.849L299.143 724.798ZM302.137 754.989C303.274 759.973 304.714 764.841 306.426 769.595L308.308 768.917C306.622 764.237 305.206 759.447 304.087 754.544L302.137 754.989ZM312.387 783.58C314.623 788.115 317.104 792.536 319.801 796.845L321.496 795.784C318.833 791.529 316.386 787.166 314.18 782.696L312.387 783.58ZM328.426 809.337C331.465 813.355 334.683 817.267 338.053 821.077L339.551 819.751C336.212 815.978 333.027 812.105 330.022 808.131L328.426 809.337ZM348.48 832.089C352.061 835.634 355.762 839.083 359.558 842.436L360.882 840.937C357.113 837.607 353.439 834.185 349.888 830.668L348.48 832.089ZM371.162 852.18C375.113 855.34 379.132 858.407 383.194 861.383L384.376 859.77C380.335 856.809 376.339 853.759 372.412 850.618L371.162 852.18ZM395.576 870.107C399.785 872.962 404.011 875.724 408.228 878.397L409.298 876.707C405.098 874.045 400.889 871.294 396.699 868.452L395.576 870.107ZM421.128 886.329C425.54 888.965 429.909 891.501 434.203 893.941L435.191 892.202C430.908 889.768 426.552 887.239 422.154 884.612L421.128 886.329ZM447.414 901.295C449.652 902.518 451.858 903.713 454.026 904.88L454.974 903.12C452.809 901.954 450.607 900.761 448.373 899.54L447.414 901.295Z" fill="#53F3FB" fill-opacity="0.3"/>
</svg>
