<svg width="550" height="913" viewBox="0 0 550 913" fill="none" xmlns="http://www.w3.org/2000/svg">
<path d="M43.4995 201L42.9298 201.822L43.4995 201ZM54 690L54.5031 690.864L54 690ZM103.4 911.005C102.851 911.06 102.45 911.55 102.505 912.1C102.56 912.649 103.05 913.05 103.6 912.995L103.4 911.005ZM542.143 0.486969C541.592 0.525031 541.176 1.00253 541.214 1.55351C541.252 2.10447 541.73 2.52028 542.281 2.48222L542.143 0.486969ZM527.536 3.55117C528.087 3.50959 528.5 3.02943 528.458 2.47871C528.416 1.928 527.936 1.51526 527.386 1.55685L527.536 3.55117ZM512.44 2.72461C511.889 2.769 511.479 3.25125 511.523 3.80175C511.568 4.35225 512.05 4.76252 512.601 4.71814L512.44 2.72461ZM497.601 5.96304C498.151 5.9161 498.559 5.43195 498.512 4.88166C498.465 4.33138 497.981 3.92333 497.431 3.97027L497.601 5.96304ZM482.319 5.29331C481.769 5.3427 481.363 5.82865 481.413 6.37872C481.462 6.9288 481.948 7.33468 482.498 7.2853L482.319 5.29331ZM467.734 8.64251C468.283 8.59079 468.687 8.10311 468.636 7.55326C468.584 7.00339 468.096 6.59957 467.546 6.6513L467.734 8.64251ZM452.679 8.08167C452.13 8.13574 451.728 8.62513 451.782 9.17476C451.836 9.7244 452.325 10.1261 452.875 10.0721L452.679 8.08167ZM437.787 11.5893C438.336 11.5328 438.736 11.0417 438.679 10.4923C438.623 9.94291 438.132 9.54331 437.582 9.59976L437.787 11.5893ZM422.837 11.1471C422.288 11.2059 421.89 11.6988 421.949 12.248C422.008 12.7971 422.501 13.1946 423.05 13.1357L422.837 11.1471ZM408.104 14.7706C408.653 14.7093 409.049 14.2147 408.987 13.6658C408.926 13.1169 408.431 12.7217 407.882 12.783L408.104 14.7706ZM392.999 14.4795C392.451 14.5433 392.058 15.0397 392.122 15.5883C392.185 16.1369 392.682 16.5299 393.231 16.4661L392.999 14.4795ZM378.374 18.2299C378.922 18.1635 379.312 17.6652 379.246 17.1169C379.18 16.5687 378.681 16.178 378.133 16.2445L378.374 18.2299ZM363.217 18.0888C362.669 18.1579 362.281 18.6582 362.35 19.2061C362.42 19.754 362.92 20.1422 363.468 20.073L363.217 18.0888ZM348.654 21.9809C349.201 21.9089 349.587 21.4067 349.515 20.8591C349.443 20.3115 348.94 19.926 348.393 19.9979L348.654 21.9809ZM333.495 21.9967C332.948 22.0716 332.565 22.5759 332.64 23.1231C332.715 23.6703 333.219 24.0531 333.766 23.9782L333.495 21.9967ZM318.969 26.0471C319.516 25.9691 319.896 25.4626 319.818 24.9159C319.74 24.3691 319.233 23.9892 318.686 24.0672L318.969 26.0471ZM303.829 26.2334C303.282 26.3148 302.906 26.8236 302.987 27.3698C303.068 27.9161 303.577 28.293 304.123 28.2116L303.829 26.2334ZM289.334 30.4618C289.88 30.3769 290.253 29.8657 290.168 29.32C290.084 28.7743 289.572 28.4007 289.027 28.4855L289.334 30.4618ZM274.22 30.8384C273.674 30.927 273.304 31.4407 273.393 31.9859C273.481 32.531 273.995 32.9011 274.54 32.8126L274.22 30.8384ZM259.762 35.2681C260.306 35.1755 260.673 34.6591 260.58 34.1147C260.487 33.5702 259.971 33.2038 259.427 33.2964L259.762 35.2681ZM244.677 35.8621C244.133 35.9589 243.77 36.4782 243.867 37.0219C243.964 37.5657 244.483 37.928 245.027 37.8312L244.677 35.8621ZM230.269 40.523C230.811 40.4216 231.169 39.8992 231.068 39.3563C230.966 38.8135 230.444 38.4556 229.901 38.557L230.269 40.523ZM215.218 41.3699C214.676 41.4764 214.323 42.002 214.43 42.5439C214.536 43.0859 215.062 43.4389 215.604 43.3324L215.218 41.3699ZM200.876 46.3022C201.417 46.1902 201.765 45.6611 201.653 45.1202C201.541 44.5794 201.012 44.2318 200.471 44.3437L200.876 46.3022ZM185.876 47.4487C185.337 47.5667 184.995 48.0997 185.113 48.6392C185.231 49.1788 185.764 49.5205 186.303 49.4025L185.876 47.4487ZM171.617 52.7086C172.155 52.5838 172.49 52.0466 172.365 51.5086C172.241 50.9706 171.703 50.6355 171.165 50.7602L171.617 52.7086ZM156.701 54.2165C156.165 54.3487 155.838 54.8905 155.97 55.4268C156.102 55.963 156.644 56.2906 157.18 56.1584L156.701 54.2165ZM142.545 59.8859C143.079 59.7453 143.398 59.1983 143.258 58.6642C143.117 58.1301 142.57 57.8112 142.036 57.9519L142.545 59.8859ZM127.672 61.8703C127.14 62.0206 126.831 62.5732 126.981 63.1047C127.132 63.6361 127.684 63.9452 128.216 63.7949L127.672 61.8703ZM113.765 68.0414C114.293 67.88 114.591 67.3209 114.429 66.7928C114.268 66.2646 113.709 65.9673 113.18 66.1288L113.765 68.0414ZM98.8973 70.6844C98.3733 70.8589 98.09 71.4252 98.2646 71.9492C98.4391 72.4731 99.0054 72.7564 99.5293 72.5819L98.8973 70.6844ZM85.4924 77.4834C86.0109 77.2933 86.2772 76.7188 86.0871 76.2003C85.8971 75.6817 85.3226 75.4155 84.8041 75.6055L85.4924 77.4834ZM70.6675 81.0779C70.1564 81.2872 69.9118 81.8712 70.1212 82.3823C70.3305 82.8934 70.9145 83.138 71.4256 82.9286L70.6675 81.0779ZM57.7986 88.8725C58.2993 88.6393 58.5161 88.0445 58.2829 87.5438C58.0497 87.0432 57.4548 86.8264 56.9542 87.0596L57.7986 88.8725ZM43.6602 93.7357C43.175 93.9995 42.9955 94.6067 43.2593 95.0919C43.5232 95.5771 44.1304 95.7566 44.6156 95.4927L43.6602 93.7357ZM31.7193 103.219C32.1791 102.913 32.3039 102.292 31.998 101.832C31.6921 101.373 31.0713 101.248 30.6115 101.554L31.7193 103.219ZM18.5437 110.704C18.1287 111.069 18.0875 111.701 18.4518 112.116C18.8161 112.531 19.4479 112.572 19.863 112.208L18.5437 110.704ZM9.82185 122.941C10.1495 122.496 10.0547 121.87 9.61014 121.542C9.16554 121.215 8.53955 121.309 8.21185 121.754L9.82185 122.941ZM1.31982 135.247C1.16482 135.778 1.4689 136.333 1.999 136.488C2.52911 136.643 3.08445 136.339 3.23945 135.809L1.31982 135.247ZM2.33998 150.116C2.25314 149.57 1.74056 149.199 1.19513 149.286C0.649754 149.372 0.278009 149.885 0.364899 150.43L2.33998 150.116ZM5.43298 164.66C5.69848 165.144 6.30627 165.322 6.79057 165.056C7.27482 164.791 7.45219 164.183 7.1867 163.699L5.43298 164.66ZM15.6977 175.717C15.3366 175.299 14.7051 175.253 14.2872 175.614C13.8693 175.975 13.8233 176.606 14.1844 177.024L15.6977 175.717ZM25.0565 187.931C25.4697 188.297 26.1017 188.26 26.4682 187.847C26.8348 187.433 26.7969 186.801 26.3838 186.435L25.0565 187.931ZM37.5995 195.526C37.1571 195.196 36.5304 195.286 36.1999 195.729C35.8693 196.171 35.96 196.798 36.4024 197.128L37.5995 195.526ZM49.109 206.12C49.5618 206.436 50.1852 206.325 50.5014 205.872C50.8175 205.42 50.7067 204.796 50.2539 204.48L49.109 206.12ZM62.5908 213.162C62.1404 212.842 61.5162 212.948 61.1966 213.398C60.877 213.849 60.983 214.473 61.4333 214.793L62.5908 213.162ZM73.6799 223.565C74.1274 223.889 74.7525 223.789 75.0763 223.341C75.4 222.894 75.2997 222.269 74.8522 221.945L73.6799 223.565ZM87.0338 230.854C86.5898 230.526 85.9636 230.62 85.6351 231.064C85.3067 231.508 85.4004 232.134 85.8444 232.462L87.0338 230.854ZM97.9 241.492C98.3399 241.826 98.9672 241.74 99.3011 241.3C99.6349 240.86 99.5489 240.233 99.1089 239.899L97.9 241.492ZM111.052 249.09C110.617 248.75 109.989 248.828 109.649 249.263C109.309 249.698 109.386 250.326 109.821 250.666L111.052 249.09ZM121.633 260.039C122.063 260.386 122.693 260.318 123.039 259.889C123.386 259.459 123.319 258.829 122.889 258.482L121.633 260.039ZM134.56 268.068C134.136 267.713 133.505 267.769 133.151 268.193C132.797 268.616 132.853 269.247 133.276 269.602L134.56 268.068ZM144.718 279.37C145.134 279.733 145.766 279.689 146.129 279.273C146.492 278.857 146.449 278.225 146.032 277.862L144.718 279.37ZM157.28 287.89C156.872 287.518 156.239 287.547 155.867 287.954C155.495 288.362 155.523 288.995 155.931 289.367L157.28 287.89ZM166.939 299.674C167.337 300.057 167.97 300.044 168.353 299.646C168.736 299.248 168.724 298.615 168.325 298.232L166.939 299.674ZM179.072 308.866C178.685 308.472 178.052 308.466 177.658 308.852C177.263 309.239 177.257 309.872 177.644 310.266L179.072 308.866ZM187.995 321.172C188.369 321.579 189.001 321.606 189.408 321.233C189.815 320.86 189.842 320.227 189.469 319.82L187.995 321.172ZM199.46 331.127C199.103 330.706 198.472 330.655 198.051 331.012C197.63 331.37 197.579 332.001 197.936 332.422L199.46 331.127ZM207.406 344.057C207.745 344.493 208.373 344.571 208.809 344.232C209.245 343.893 209.324 343.265 208.984 342.829L207.406 344.057ZM217.992 355.011C217.675 354.559 217.052 354.449 216.6 354.766C216.147 355.083 216.038 355.707 216.355 356.159L217.992 355.011ZM224.635 368.703C224.925 369.173 225.542 369.318 226.011 369.027C226.481 368.736 226.626 368.12 226.335 367.65L224.635 368.703ZM233.891 380.771C233.631 380.283 233.026 380.098 232.538 380.358C232.051 380.617 231.866 381.223 232.126 381.711L233.891 380.771ZM238.687 395.191C238.91 395.696 239.5 395.925 240.005 395.703C240.511 395.48 240.74 394.89 240.517 394.384L238.687 395.191ZM246.052 408.48C245.873 407.958 245.303 407.681 244.781 407.86C244.259 408.04 243.982 408.609 244.161 409.131L246.052 408.48ZM248.381 423.487C248.512 424.024 249.053 424.353 249.589 424.222C250.126 424.092 250.455 423.551 250.325 423.014L248.381 423.487ZM253.169 437.899C253.093 437.352 252.588 436.97 252.041 437.046C251.494 437.121 251.112 437.626 251.188 438.173L253.169 437.899ZM252.454 453.065C252.472 453.617 252.933 454.05 253.485 454.033C254.037 454.016 254.471 453.554 254.453 453.002L252.454 453.065ZM254.103 468.16C254.146 467.609 253.734 467.128 253.183 467.085C252.633 467.042 252.152 467.454 252.109 468.005L254.103 468.16ZM250.153 482.831C250.051 483.373 250.41 483.896 250.952 483.997C251.495 484.098 252.018 483.74 252.119 483.197L250.153 482.831ZM248.573 497.961C248.729 497.432 248.426 496.876 247.896 496.72C247.366 496.564 246.81 496.867 246.654 497.397L248.573 497.961ZM241.739 511.582C241.534 512.095 241.784 512.677 242.297 512.882C242.809 513.087 243.391 512.837 243.596 512.324L241.739 511.582ZM237.413 526.073C237.66 525.579 237.46 524.978 236.966 524.731C236.472 524.484 235.872 524.684 235.625 525.178L237.413 526.073ZM228.442 538.261C228.158 538.735 228.313 539.349 228.787 539.633C229.261 539.916 229.875 539.762 230.158 539.288L228.442 538.261ZM221.956 552.008C222.27 551.554 222.157 550.931 221.703 550.617C221.248 550.303 220.626 550.416 220.311 550.87L221.956 552.008ZM211.317 563.068C210.977 563.503 211.053 564.132 211.488 564.472C211.923 564.813 212.551 564.736 212.892 564.301L211.317 563.068ZM203.363 575.841C203.726 575.424 203.681 574.793 203.264 574.431C202.847 574.069 202.216 574.113 201.853 574.53L203.363 575.841ZM191.758 585.626C191.378 586.026 191.393 586.659 191.793 587.039C192.194 587.42 192.827 587.404 193.207 587.004L191.758 585.626ZM182.452 597.852C182.848 597.468 182.858 596.835 182.474 596.438C182.089 596.042 181.456 596.032 181.06 596.416L182.452 597.852ZM170.231 606.542C169.821 606.912 169.789 607.544 170.159 607.954C170.53 608.364 171.162 608.396 171.572 608.026L170.231 606.542ZM160.055 618.089C160.476 617.733 160.529 617.102 160.172 616.68C159.815 616.258 159.184 616.206 158.763 616.563L160.055 618.089ZM147.294 625.988C146.863 626.333 146.792 626.962 147.137 627.394C147.482 627.825 148.111 627.896 148.542 627.551L147.294 625.988ZM136.496 636.915C136.936 636.582 137.023 635.955 136.69 635.514C136.356 635.074 135.729 634.987 135.289 635.321L136.496 636.915ZM123.327 644.156C122.88 644.479 122.778 645.104 123.101 645.552C123.424 646 124.049 646.102 124.497 645.778L123.327 644.156ZM111.984 654.597C112.439 654.283 112.554 653.661 112.24 653.206C111.927 652.751 111.304 652.636 110.85 652.95L111.984 654.597ZM98.5709 661.234C98.1102 661.539 97.9836 662.159 98.2881 662.62C98.5927 663.08 99.2131 663.207 99.6738 662.902L98.5709 661.234ZM86.7791 671.257C87.2453 670.961 87.3832 670.343 87.087 669.877C86.7909 669.41 86.1729 669.272 85.7068 669.569L86.7791 671.257ZM73.162 677.395C72.6911 677.683 72.5434 678.299 72.8319 678.77C73.1205 679.241 73.7362 679.388 74.2071 679.1L73.162 677.395ZM61.2014 686.932C61.6766 686.651 61.8338 686.038 61.5524 685.562C61.2711 685.087 60.6578 684.93 60.1825 685.211L61.2014 686.932ZM46.8402 693.231C46.3775 693.532 46.2469 694.152 46.5484 694.614C46.8499 695.077 47.4695 695.208 47.9322 694.906L46.8402 693.231ZM36.2544 703.593C36.6725 703.232 36.7188 702.6 36.358 702.182C35.9971 701.764 35.3656 701.718 34.9476 702.079L36.2544 703.593ZM24.7246 712.913C24.3974 713.358 24.4929 713.984 24.9378 714.311C25.3828 714.639 26.0087 714.543 26.3358 714.098L24.7246 712.913ZM20.0445 726.726C20.1877 726.192 19.8715 725.644 19.3381 725.501C18.8047 725.357 18.2562 725.674 18.1129 726.207L20.0445 726.726ZM17.6666 741.288C17.7747 741.83 18.3013 742.181 18.843 742.073C19.3846 741.965 19.736 741.438 19.6279 740.897L17.6666 741.288ZM24.9164 754.249C24.638 753.772 24.0258 753.611 23.5487 753.889C23.0716 754.167 22.9105 754.78 23.1887 755.257L24.9164 754.249ZM31.9792 767.264C32.3429 767.68 32.9746 767.722 33.3903 767.358C33.8059 766.995 33.8481 766.363 33.4844 765.947L31.9792 767.264ZM43.8134 776.376C43.4046 776.004 42.7722 776.035 42.4008 776.443C42.0294 776.852 42.0597 777.485 42.4685 777.856L43.8134 776.376ZM53.8605 787.418C54.2954 787.759 54.9239 787.682 55.2643 787.247C55.6047 786.812 55.5281 786.184 55.0932 785.843L53.8605 787.418ZM66.9278 794.616C66.4766 794.298 65.8527 794.405 65.5341 794.856C65.2156 795.307 65.3231 795.931 65.7743 796.25L66.9278 794.616ZM78.0163 804.567C78.478 804.87 79.098 804.742 79.4011 804.28C79.7041 803.818 79.5755 803.198 79.1138 802.895L78.0163 804.567ZM91.5331 810.831C91.0646 810.539 90.4477 810.682 90.1553 811.15C89.8629 811.619 90.0057 812.236 90.4742 812.528L91.5331 810.831ZM103.07 820.254C103.542 820.54 104.157 820.389 104.443 819.916C104.729 819.443 104.577 818.829 104.105 818.543L103.07 820.254ZM116.761 826.131C116.287 825.848 115.673 826.003 115.39 826.478C115.107 826.952 115.263 827.566 115.737 827.849L116.761 826.131ZM128.409 835.41C128.882 835.694 129.496 835.54 129.78 835.066C130.064 834.592 129.91 833.978 129.437 833.694L128.409 835.41ZM142.069 841.355C141.599 841.065 140.983 841.212 140.693 841.682C140.403 842.152 140.55 842.768 141.02 843.058L142.069 841.355ZM153.517 850.981C153.979 851.284 154.599 851.155 154.902 850.693C155.205 850.232 155.077 849.612 154.615 849.309L153.517 850.981ZM166.854 857.801C166.411 857.471 165.784 857.564 165.455 858.007C165.125 858.45 165.217 859.076 165.66 859.406L166.854 857.801ZM176.779 868.681C177.175 869.067 177.808 869.058 178.194 868.663C178.579 868.267 178.57 867.634 178.175 867.249L176.779 868.681ZM186.942 879.57C186.767 879.046 186.201 878.762 185.677 878.936C185.153 879.111 184.87 879.677 185.044 880.201L186.942 879.57ZM181.172 892.153C180.754 892.514 180.707 893.145 181.067 893.564C181.428 893.982 182.059 894.029 182.478 893.669L181.172 892.153ZM169.326 900.802C169.843 900.608 170.105 900.032 169.911 899.515C169.717 898.998 169.14 898.736 168.623 898.93L169.326 900.802ZM154.703 903.097C154.167 903.228 153.838 903.769 153.968 904.305C154.099 904.842 154.64 905.171 155.176 905.04L154.703 903.097ZM140.636 908.06C141.18 907.963 141.542 907.443 141.445 906.9C141.348 906.356 140.829 905.994 140.285 906.091L140.636 908.06ZM125.443 908.415C124.896 908.49 124.513 908.995 124.589 909.542C124.664 910.089 125.169 910.471 125.716 910.396L125.443 908.415ZM111.405 912.17C111.954 912.109 112.35 911.614 112.289 911.065C112.227 910.516 111.733 910.121 111.184 910.182L111.405 912.17ZM549.494 1.00021C549.432 0.00210505 549.432 0.00211252 549.432 0.00211137C549.432 0.00210817 549.432 0.00211146 549.432 0.00211816C549.432 0.0021185 549.432 0.00213659 549.432 0.00214626C549.432 0.00216562 549.431 0.00219058 549.431 0.00223414C549.429 0.00230818 549.427 0.00243049 549.425 0.0025874C549.42 0.00288816 549.412 0.0033535 549.402 0.00397892C549.382 0.00521664 549.353 0.0070684 549.313 0.00955007C549.234 0.0145003 549.116 0.0219309 548.959 0.0318642C548.646 0.0517437 548.18 0.0816341 547.565 0.121765C546.336 0.202015 544.514 0.323192 542.143 0.486969L542.281 2.48222C544.649 2.31862 546.468 2.1976 547.695 2.11751C548.309 2.07746 548.774 2.04765 549.086 2.02785C549.242 2.01795 549.36 2.01056 549.438 2.00564C549.477 2.00318 549.507 2.00134 549.526 2.00012C549.536 1.99951 549.544 1.99906 549.549 1.99875C549.551 1.9986 549.553 1.99849 549.554 1.99842C549.555 1.99838 549.555 1.99834 549.555 1.99833C549.555 1.99833 549.556 1.99832 549.556 1.99831C549.556 1.99831 549.556 1.99831 549.556 1.9983C549.556 1.99831 549.556 1.99831 549.494 1.00021ZM527.386 1.55685C522.98 1.88953 517.978 2.27802 512.44 2.72461L512.601 4.71814C518.135 4.27184 523.134 3.88361 527.536 3.55117L527.386 1.55685ZM497.431 3.97027C492.657 4.37753 487.611 4.81821 482.319 5.29331L482.498 7.2853C487.787 6.81048 492.83 6.37005 497.601 5.96304L497.431 3.97027ZM467.546 6.6513C462.744 7.10299 457.784 7.5796 452.679 8.08167L452.875 10.0721C457.976 9.57028 462.934 9.09394 467.734 8.64251L467.546 6.6513ZM437.582 9.59976C432.768 10.0945 427.849 10.6101 422.837 11.1471L423.05 13.1357C428.059 12.5991 432.975 12.0837 437.787 11.5893L437.582 9.59976ZM407.882 12.783C402.993 13.329 398.029 13.8944 392.999 14.4795L393.231 16.4661C398.257 15.8814 403.218 15.3163 408.104 14.7706L407.882 12.783ZM378.133 16.2445C373.21 16.8408 368.236 17.4555 363.217 18.0888L363.468 20.073C368.483 19.4402 373.454 18.8259 378.374 18.2299L378.133 16.2445ZM348.393 19.9979C343.459 20.6464 338.49 21.3125 333.495 21.9967L333.766 23.9782C338.758 23.2945 343.723 22.6289 348.654 21.9809L348.393 19.9979ZM318.686 24.0672C313.751 24.7717 308.796 25.4937 303.829 26.2334L304.123 28.2116C309.087 27.4725 314.037 26.7511 318.969 26.0471L318.686 24.0672ZM289.027 28.4855C284.095 29.2521 279.157 30.0364 274.22 30.8384L274.54 32.8126C279.473 32.0112 284.406 31.2277 289.334 30.4618L289.027 28.4855ZM259.427 33.2964C254.501 34.1335 249.582 34.9886 244.677 35.8621L245.027 37.8312C249.928 36.9586 254.841 36.1043 259.762 35.2681L259.427 33.2964ZM229.901 38.557C224.985 39.4757 220.088 40.4132 215.218 41.3699L215.604 43.3324C220.468 42.377 225.358 41.4406 230.269 40.523L229.901 38.557ZM200.471 44.3437C195.569 45.3585 190.702 46.3934 185.876 47.4487L186.303 49.4025C191.122 48.3489 195.982 47.3155 200.876 46.3022L200.471 44.3437ZM171.165 50.7602C166.29 51.8903 161.467 53.0423 156.701 54.2165L157.18 56.1584C161.936 54.9865 166.751 53.8366 171.617 52.7086L171.165 50.7602ZM142.036 57.9519C137.172 59.233 132.381 60.5391 127.672 61.8703L128.216 63.7949C132.913 62.4671 137.692 61.1642 142.545 59.8859L142.036 57.9519ZM113.18 66.1288C108.311 67.6175 103.546 69.1359 98.8973 70.6844L99.5293 72.5819C104.161 71.039 108.91 69.5256 113.765 68.0414L113.18 66.1288ZM84.8041 75.6055C79.9311 77.3917 75.214 79.2156 70.6675 81.0779L71.4256 82.9286C75.947 81.0766 80.6408 79.2617 85.4924 77.4834L84.8041 75.6055ZM56.9542 87.0596C52.2836 89.235 47.8451 91.4601 43.6602 93.7357L44.6156 95.4927C48.7602 93.2391 53.1612 91.0326 57.7986 88.8725L56.9542 87.0596ZM30.6115 101.554C26.1522 104.52 22.1153 107.57 18.5437 110.704L19.863 112.208C23.3574 109.141 27.3215 106.145 31.7193 103.219L30.6115 101.554ZM8.21185 121.754C5.01591 126.09 2.6823 130.587 1.31982 135.247L3.23945 135.809C4.52592 131.408 6.74147 127.12 9.82185 122.941L8.21185 121.754ZM0.364899 150.43C1.10377 155.07 2.77552 159.813 5.43298 164.66L7.1867 163.699C4.62399 159.024 3.03801 154.498 2.33998 150.116L0.364899 150.43ZM14.1844 177.024C17.2752 180.601 20.8917 184.236 25.0565 187.931L26.3838 186.435C22.2754 182.79 18.7228 179.217 15.6977 175.717L14.1844 177.024ZM36.4024 197.128C38.482 198.682 40.6573 200.247 42.9298 201.822L44.0692 200.178C41.8151 198.616 39.6591 197.065 37.5995 195.526L36.4024 197.128ZM42.9298 201.822C44.9907 203.25 47.0507 204.683 49.109 206.12L50.2539 204.48C48.1936 203.042 46.1317 201.608 44.0692 200.178L42.9298 201.822ZM61.4333 214.793C65.53 217.7 69.6141 220.624 73.6799 223.565L74.8522 221.945C70.7811 219 66.692 216.072 62.5908 213.162L61.4333 214.793ZM85.8444 232.462C89.8896 235.455 93.9101 238.465 97.9 241.492L99.1089 239.899C95.1122 236.866 91.0852 233.851 87.0338 230.854L85.8444 232.462ZM109.821 250.666C113.799 253.772 117.738 256.897 121.633 260.039L122.889 258.482C118.985 255.333 115.037 252.202 111.052 249.09L109.821 250.666ZM133.276 269.602C137.145 272.839 140.961 276.095 144.718 279.37L146.032 277.862C142.265 274.578 138.438 271.313 134.56 268.068L133.276 269.602ZM155.931 289.367C159.673 292.782 163.345 296.218 166.939 299.674L168.325 298.232C164.718 294.763 161.033 291.316 157.28 287.89L155.931 289.367ZM177.644 310.266C181.187 313.88 184.641 317.515 187.995 321.172L189.469 319.82C186.099 316.146 182.63 312.494 179.072 308.866L177.644 310.266ZM197.936 332.422C201.211 336.276 204.371 340.155 207.406 344.057L208.984 342.829C205.931 338.903 202.753 335.002 199.46 331.127L197.936 332.422ZM216.355 356.159C219.266 360.314 222.03 364.495 224.635 368.703L226.335 367.65C223.709 363.408 220.925 359.196 217.992 355.011L216.355 356.159ZM232.126 381.711C234.502 386.175 236.694 390.668 238.687 395.191L240.517 394.384C238.503 389.814 236.29 385.276 233.891 380.771L232.126 381.711ZM244.161 409.131C245.798 413.885 247.209 418.67 248.381 423.487L250.325 423.014C249.137 418.134 247.708 413.29 246.052 408.48L244.161 409.131ZM251.188 438.173C251.872 443.103 252.298 448.067 252.454 453.065L254.453 453.002C254.295 447.932 253.862 442.898 253.169 437.899L251.188 438.173ZM252.109 468.005C251.728 472.913 251.08 477.855 250.153 482.831L252.119 483.197C253.059 478.152 253.717 473.139 254.103 468.16L252.109 468.005ZM246.654 497.397C245.273 502.095 243.638 506.824 241.739 511.582L243.596 512.324C245.518 507.509 247.174 502.721 248.573 497.961L246.654 497.397ZM235.625 525.178C233.455 529.514 231.064 533.875 228.442 538.261L230.158 539.288C232.805 534.86 235.221 530.455 237.413 526.073L235.625 525.178ZM220.311 550.87C217.513 554.915 214.517 558.981 211.317 563.068L212.892 564.301C216.115 560.185 219.134 556.087 221.956 552.008L220.311 550.87ZM201.853 574.53C198.656 578.212 195.292 581.91 191.758 585.626L193.207 587.004C196.761 583.268 200.146 579.547 203.363 575.841L201.853 574.53ZM181.06 596.416C177.591 599.778 173.983 603.153 170.231 606.542L171.572 608.026C175.34 604.622 178.966 601.231 182.452 597.852L181.06 596.416ZM158.763 616.563C155.063 619.693 151.241 622.835 147.294 625.988L148.542 627.551C152.504 624.386 156.341 621.232 160.055 618.089L158.763 616.563ZM135.289 635.321C131.411 638.256 127.424 641.201 123.327 644.156L124.497 645.778C128.607 642.815 132.605 639.86 136.496 636.915L135.289 635.321ZM110.85 652.95C106.853 655.703 102.761 658.464 98.5709 661.234L99.6738 662.902C103.874 660.126 107.977 657.357 111.984 654.597L110.85 652.95ZM85.7068 669.569C81.6118 672.17 77.4306 674.779 73.162 677.395L74.2071 679.1C78.4847 676.478 82.6749 673.864 86.7791 671.257L85.7068 669.569ZM60.1825 685.211C57.9759 686.518 55.7474 687.826 53.497 689.136L54.5031 690.864C56.7578 689.552 58.9904 688.241 61.2014 686.932L60.1825 685.211ZM53.497 689.136C51.1535 690.5 48.9358 691.865 46.8402 693.231L47.9322 694.906C49.9978 693.56 52.1868 692.213 54.5031 690.864L53.497 689.136ZM34.9476 702.079C30.7743 705.681 27.3865 709.293 24.7246 712.913L26.3358 714.098C28.8949 710.618 32.175 707.114 36.2544 703.593L34.9476 702.079ZM18.1129 726.207C16.7542 731.265 16.671 736.3 17.6666 741.288L19.6279 740.897C18.6891 736.192 18.77 731.47 20.0445 726.726L18.1129 726.207ZM23.1887 755.257C25.5493 759.304 28.5182 763.308 31.9792 767.264L33.4844 765.947C30.0885 762.065 27.1999 758.164 24.9164 754.249L23.1887 755.257ZM42.4685 777.856C46.011 781.074 49.8293 784.263 53.8605 787.418L55.0932 785.843C51.0936 782.713 47.3137 779.556 43.8134 776.376L42.4685 777.856ZM65.7743 796.25C69.7415 799.051 73.8376 801.824 78.0163 804.567L79.1138 802.895C74.9506 800.162 70.8736 797.402 66.9278 794.616L65.7743 796.25ZM90.4742 812.528C94.6501 815.134 98.8628 817.711 103.07 820.254L104.105 818.543C99.9032 816.002 95.6989 813.431 91.5331 810.831L90.4742 812.528ZM115.737 827.849C120.028 830.407 124.265 832.927 128.409 835.41L129.437 833.694C125.291 831.21 121.049 828.688 116.761 826.131L115.737 827.849ZM141.02 843.058C145.391 845.753 149.579 848.395 153.517 850.981L154.615 849.309C150.656 846.709 146.452 844.057 142.069 841.355L141.02 843.058ZM165.66 859.406C169.972 862.612 173.724 865.706 176.779 868.681L178.175 867.249C175.035 864.191 171.209 861.039 166.854 857.801L165.66 859.406ZM185.044 880.201C185.773 882.392 185.857 884.443 185.265 886.385C184.67 888.335 183.367 890.263 181.172 892.153L182.478 893.669C184.884 891.596 186.447 889.364 187.178 886.969C187.911 884.566 187.779 882.086 186.942 879.57L185.044 880.201ZM168.623 898.93C164.73 900.39 160.112 901.781 154.703 903.097L155.176 905.04C160.642 903.71 165.34 902.297 169.326 900.802L168.623 898.93ZM140.285 906.091C135.729 906.903 130.788 907.678 125.443 908.415L125.716 910.396C131.083 909.656 136.051 908.877 140.636 908.06L140.285 906.091ZM111.184 910.182C108.663 910.463 106.069 910.738 103.4 911.005L103.6 912.995C106.275 912.727 108.877 912.452 111.405 912.17L111.184 910.182Z" fill="#53F3FB" fill-opacity="0.3"/>
</svg>
