<svg width="567" height="605" viewBox="0 0 567 605" fill="none" xmlns="http://www.w3.org/2000/svg">
<path d="M565.611 2.00177C566.163 2.03461 566.583 2.50812 566.55 3.05945C566.517 3.61078 566.044 4.03107 565.492 3.99823L565.611 2.00177ZM89.7843 601.31C89.2893 601.065 89.0864 600.465 89.3313 599.97C89.5761 599.475 90.1759 599.272 90.671 599.517L89.7843 601.31ZM77.9221 592.191C78.3831 592.495 78.5103 593.115 78.2063 593.576C77.9022 594.037 77.2819 594.164 76.8209 593.86L77.9221 592.191ZM64.8307 584.885C64.4086 584.529 64.3551 583.898 64.7113 583.476C65.0674 583.054 65.6983 583 66.1204 583.357L64.8307 584.885ZM55.4271 573.272C55.808 573.672 55.7925 574.305 55.3925 574.686C54.9926 575.067 54.3596 575.051 53.9787 574.651L55.4271 573.272ZM44.2495 563.336C43.9105 562.9 43.989 562.272 44.425 561.933C44.861 561.594 45.4893 561.672 45.8283 562.108L44.2495 563.336ZM37.3012 550.027C37.5991 550.492 37.4636 551.11 36.9985 551.408C36.5335 551.706 35.915 551.571 35.6171 551.105L37.3012 550.027ZM28.0889 538.19C27.8304 537.702 28.0165 537.097 28.5046 536.838C28.9926 536.58 29.5978 536.766 29.8563 537.254L28.0889 538.19ZM23.4693 524C23.6906 524.506 23.4598 525.096 22.9537 525.317C22.4477 525.538 21.8581 525.307 21.6369 524.801L23.4693 524ZM16.1311 510.909C15.9452 510.389 16.216 509.817 16.736 509.631C17.256 509.445 17.8284 509.716 18.0143 510.236L16.1311 510.909ZM13.4714 496.118C13.6241 496.649 13.3176 497.203 12.7868 497.356C12.256 497.509 11.702 497.202 11.5493 496.671L13.4714 496.118ZM7.86982 482.297C7.74832 481.758 8.08657 481.223 8.62532 481.101C9.16408 480.98 9.69932 481.318 9.82082 481.857L7.86982 482.297ZM6.9575 467.29C7.04928 467.834 6.6822 468.35 6.1376 468.442C5.59299 468.534 5.0771 468.167 4.98531 467.622L6.9575 467.29ZM2.89265 452.884C2.82894 452.335 3.22202 451.839 3.77062 451.775C4.31922 451.711 4.81559 452.104 4.8793 452.653L2.89265 452.884ZM3.53475 437.934C3.57172 438.485 3.15498 438.962 2.60394 438.999C2.05289 439.036 1.57621 438.619 1.53924 438.068L3.53475 437.934ZM0.888298 423.105C0.877086 422.553 1.31562 422.096 1.86779 422.085C2.41996 422.073 2.87667 422.512 2.88789 423.064L0.888298 423.105ZM2.91728 408.341C2.90402 408.893 2.44568 409.33 1.89356 409.316C1.34143 409.303 0.904595 408.845 0.917857 408.293L2.91728 408.341ZM1.60162 393.351C1.63872 392.8 2.11549 392.383 2.66653 392.421C3.21757 392.458 3.6342 392.934 3.59711 393.485L1.60162 393.351ZM4.89572 378.784C4.83574 379.333 4.34206 379.73 3.79304 379.67C3.24402 379.61 2.84757 379.116 2.90754 378.567L4.89572 378.784ZM4.83043 363.775C4.91272 363.229 5.42215 362.853 5.96827 362.935C6.51439 363.017 6.89039 363.527 6.8081 364.073L4.83043 363.775ZM9.30533 349.484C9.20136 350.027 8.67737 350.382 8.13496 350.278C7.59255 350.174 7.23712 349.65 7.34108 349.108L9.30533 349.484ZM10.4301 334.543C10.5552 334.006 11.0927 333.671 11.6306 333.796C12.1685 333.921 12.5032 334.459 12.3781 334.997L10.4301 334.543ZM16.0155 320.624C15.8697 321.156 15.3197 321.47 14.787 321.324C14.2543 321.178 13.9407 320.628 14.0864 320.096L16.0155 320.624ZM18.2846 305.831C18.4506 305.304 19.0122 305.012 19.5389 305.178C20.0657 305.344 20.3582 305.905 20.1922 306.432L18.2846 305.831ZM24.9195 292.366C24.7337 292.886 24.1614 293.157 23.6413 292.971C23.1213 292.785 22.8503 292.213 23.0361 291.693L24.9195 292.366ZM28.2967 277.797C28.5018 277.284 29.0838 277.035 29.5966 277.24C30.1094 277.445 30.3587 278.027 30.1536 278.54L28.2967 277.797ZM35.9249 264.864C35.7007 265.368 35.1098 265.596 34.6051 265.372C34.1003 265.147 33.8729 264.557 34.0971 264.052L35.9249 264.864ZM40.3786 250.59C40.6214 250.094 41.2203 249.889 41.7164 250.132C42.2125 250.374 42.4178 250.973 42.175 251.469L40.3786 250.59ZM48.9456 238.262C48.6846 238.749 48.0785 238.932 47.5917 238.671C47.105 238.41 46.9221 237.803 47.1831 237.317L48.9456 238.262ZM54.4457 224.355C54.7245 223.878 55.3369 223.717 55.8137 223.996C56.2905 224.275 56.4509 224.888 56.1721 225.364L54.4457 224.355ZM63.895 212.7C63.5988 213.166 62.9808 213.304 62.5146 213.008C62.0485 212.712 61.9107 212.094 62.2069 211.628L63.895 212.7ZM70.4102 199.227C70.7233 198.772 71.3459 198.657 71.8008 198.97C72.2558 199.283 72.3708 199.906 72.0577 200.361L70.4102 199.227ZM80.6804 188.311C80.3508 188.754 79.7244 188.846 79.2812 188.517C78.8381 188.187 78.746 187.561 79.0755 187.117L80.6804 188.311ZM88.1777 175.334C88.5233 174.903 89.1527 174.834 89.5835 175.179C90.0143 175.525 90.0835 176.154 89.738 176.585L88.1777 175.334ZM99.2005 165.216C98.8395 165.634 98.2081 165.68 97.7901 165.319C97.372 164.958 97.3258 164.327 97.6867 163.909L99.2005 165.216ZM107.646 152.79C108.022 152.385 108.654 152.362 109.059 152.738C109.464 153.114 109.487 153.746 109.111 154.151L107.646 152.79ZM119.344 143.523C118.954 143.914 118.321 143.915 117.93 143.525C117.539 143.135 117.538 142.501 117.928 142.11L119.344 143.523ZM128.704 131.694C129.107 131.317 129.74 131.339 130.117 131.743C130.494 132.147 130.471 132.78 130.068 133.156L128.704 131.694ZM140.991 123.321C140.575 123.684 139.943 123.639 139.581 123.223C139.218 122.806 139.263 122.174 139.679 121.812L140.991 123.321ZM151.144 112.196C151.574 111.849 152.203 111.915 152.551 112.345C152.898 112.774 152.832 113.404 152.403 113.751L151.144 112.196ZM164.019 104.677C163.578 105.009 162.951 104.922 162.619 104.48C162.286 104.039 162.374 103.412 162.815 103.08L164.019 104.677ZM174.861 94.3174C175.313 94.0002 175.937 94.1095 176.254 94.5616C176.572 95.0137 176.462 95.6373 176.01 95.9546L174.861 94.3174ZM188.305 87.6326C187.843 87.9344 187.223 87.8043 186.921 87.3417C186.619 86.8793 186.75 86.2596 187.212 85.9578L188.305 87.6326ZM199.74 78.072C200.212 77.7855 200.827 77.9359 201.114 78.4081C201.4 78.8802 201.25 79.4952 200.778 79.7817L199.74 78.072ZM213.694 72.2302C213.213 72.5012 212.603 72.3306 212.332 71.8494C212.062 71.3681 212.232 70.7584 212.713 70.4874L213.694 72.2302ZM225.661 63.4651C226.15 63.2094 226.754 63.399 227.01 63.8885C227.266 64.3781 227.076 64.9822 226.586 65.2379L225.661 63.4651ZM239.855 58.5698C239.357 58.8101 238.76 58.6018 238.519 58.1046C238.279 57.6073 238.487 57.0094 238.984 56.7691L239.855 58.5698ZM252.522 50.4803C253.026 50.2552 253.618 50.4817 253.843 50.986C254.068 51.4904 253.841 52.0817 253.337 52.3067L252.522 50.4803ZM266.851 46.5143C266.341 46.7244 265.756 46.4807 265.546 45.9699C265.336 45.4592 265.58 44.8748 266.09 44.6647L266.851 46.5143ZM280.052 39.1589C280.568 38.9638 281.145 39.2244 281.34 39.7411C281.536 40.2578 281.275 40.8348 280.758 41.0299L280.052 39.1589ZM294.612 36.0192C294.09 36.1998 293.52 35.9231 293.34 35.4012C293.159 34.8793 293.436 34.3098 293.958 34.1292L294.612 36.0192ZM308.031 29.4745C308.558 29.3083 309.12 29.6004 309.286 30.1271C309.452 30.6537 309.16 31.2155 308.634 31.3818L308.031 29.4745ZM323.021 27.053C322.49 27.205 321.937 26.8978 321.785 26.3669C321.633 25.8359 321.94 25.2823 322.471 25.1302L323.021 27.053ZM336.633 21.2719C337.168 21.1335 337.713 21.4547 337.852 21.9894C337.99 22.524 337.669 23.0697 337.134 23.2081L336.633 21.2719ZM351.513 19.6792C350.975 19.8041 350.437 19.4693 350.312 18.9313C350.187 18.3934 350.522 17.856 351.06 17.731L351.513 19.6792ZM365.825 14.4952C366.366 14.3836 366.895 14.7317 367.006 15.2726C367.118 15.8135 366.77 16.3424 366.229 16.454L365.825 14.4952ZM380.541 13.6755C379.997 13.7745 379.476 13.4142 379.377 12.8709C379.279 12.3276 379.639 11.8068 380.182 11.7078L380.541 13.6755ZM394.821 9.21436C395.367 9.12781 395.879 9.49982 395.966 10.0453C396.052 10.5908 395.68 11.1031 395.135 11.1896L394.821 9.21436ZM410.039 8.9978C409.491 9.07208 408.988 8.6886 408.913 8.1413C408.839 7.59406 409.223 7.09021 409.77 7.01599L410.039 8.9978ZM424.313 5.20081C424.862 5.13818 425.358 5.53229 425.42 6.08099C425.483 6.6297 425.089 7.12531 424.54 7.18793L424.313 5.20081ZM439.223 5.66675C438.674 5.71802 438.186 5.31378 438.135 4.76385C438.084 4.21399 438.488 3.72662 439.038 3.67542L439.223 5.66675ZM454.045 2.43188C454.595 2.39185 455.074 2.80591 455.114 3.35675C455.154 3.90759 454.74 4.3866 454.19 4.42657L454.045 2.43188ZM468.92 3.50055C468.368 3.52991 467.898 3.10657 467.868 2.55505C467.839 2.0036 468.262 1.53271 468.814 1.50336L468.92 3.50055ZM483.515 0.859863C484.067 0.84082 484.53 1.27283 484.549 1.82477C484.568 2.37677 484.136 2.8396 483.584 2.85864L483.515 0.859863ZM498.504 2.48236C497.952 2.49121 497.497 2.05078 497.488 1.49854C497.479 0.94635 497.92 0.491516 498.472 0.482605L498.504 2.48236ZM513.546 0.376221C514.099 0.377197 514.545 0.825745 514.544 1.37805C514.543 1.93036 514.095 2.3772 513.543 2.37622L513.546 0.376221ZM528.096 2.52606C527.543 2.51575 527.104 2.05975 527.114 1.50757C527.125 0.955383 527.581 0.516113 528.133 0.526428L528.096 2.52606ZM542.95 0.926025C543.502 0.945435 543.934 1.40863 543.915 1.96057C543.895 2.51251 543.432 2.94421 542.88 2.9248L542.95 0.926025ZM557.897 3.57642C557.345 3.54797 556.921 3.07782 556.95 2.52631C556.978 1.97473 557.448 1.55066 558 1.57904L557.897 3.57642ZM96.6142 604.423C94.3001 603.455 92.0233 602.417 89.7843 601.31L90.671 599.517C92.8723 600.606 95.1106 601.626 97.3855 602.577L96.6142 604.423ZM76.8209 593.86C72.6682 591.121 68.6701 588.125 64.8307 584.885L66.1204 583.357C69.9014 586.547 73.8366 589.496 77.9221 592.191L76.8209 593.86ZM53.9787 574.651C50.5835 571.086 47.3393 567.309 44.2495 563.336L45.8283 562.108C48.8786 566.031 52.0795 569.756 55.4271 573.272L53.9787 574.651ZM35.6171 551.105C32.9634 546.963 30.453 542.654 28.0889 538.19L29.8563 537.254C32.1955 541.671 34.6782 545.932 37.3012 550.027L35.6171 551.105ZM21.6369 524.801C19.6668 520.296 17.8307 515.662 16.1311 510.909L18.0143 510.236C19.699 514.947 21.5182 519.538 23.4693 524L21.6369 524.801ZM11.5493 496.671C10.1983 491.974 8.97107 487.18 7.86982 482.297L9.82082 481.857C10.9137 486.703 12.1314 491.46 13.4714 496.118L11.5493 496.671ZM4.98531 467.622C4.16941 462.781 3.47122 457.866 2.89265 452.884L4.8793 452.653C5.45399 457.602 6.14739 462.483 6.9575 467.29L4.98531 467.622ZM1.53924 438.068C1.20818 433.134 0.990614 428.144 0.888298 423.105L2.88789 423.064C2.98958 428.072 3.2058 433.031 3.53475 437.934L1.53924 438.068ZM0.917857 408.293C1.03658 403.35 1.26398 398.367 1.60162 393.351L3.59711 393.485C3.26138 398.473 3.03531 403.427 2.91728 408.341L0.917857 408.293ZM2.90754 378.567C3.44355 373.66 4.08404 368.728 4.83043 363.775L6.8081 364.073C6.06574 368.999 5.42876 373.905 4.89572 378.784L2.90754 378.567ZM7.34108 349.108C8.26918 344.266 9.2984 339.409 10.4301 334.543L12.3781 334.997C11.2523 339.837 10.2285 344.668 9.30533 349.484L7.34108 349.108ZM14.0864 320.096C15.387 315.344 16.786 310.587 18.2846 305.831L20.1922 306.432C18.7012 311.164 17.3094 315.896 16.0155 320.624L14.0864 320.096ZM23.0361 291.693C24.6931 287.055 26.4463 282.421 28.2967 277.797L30.1536 278.54C28.3125 283.141 26.5682 287.751 24.9195 292.366L23.0361 291.693ZM34.0971 264.052C36.0965 259.551 38.19 255.062 40.3786 250.59L42.175 251.469C39.9973 255.919 37.9143 260.385 35.9249 264.864L34.0971 264.052ZM47.1831 237.317C49.5115 232.975 51.932 228.653 54.4457 224.355L56.1721 225.364C53.6709 229.641 51.2624 233.942 48.9456 238.262L47.1831 237.317ZM62.2069 211.628C64.8507 207.467 67.5848 203.332 70.4102 199.227L72.0577 200.361C69.2463 204.446 66.5257 208.56 63.895 212.7L62.2069 211.628ZM79.0755 187.117C82.0209 183.157 85.0547 179.228 88.1777 175.334L89.738 176.585C86.6302 180.46 83.6113 184.37 80.6804 188.311L79.0755 187.117ZM97.6867 163.909C100.92 160.165 104.239 156.458 107.646 152.79L109.111 154.151C105.721 157.801 102.418 161.49 99.2005 165.216L97.6867 163.909ZM117.928 142.11C121.435 138.596 125.027 135.123 128.704 131.694L130.068 133.156C126.408 136.569 122.834 140.026 119.344 143.523L117.928 142.11ZM139.679 121.812C143.419 118.561 147.241 115.355 151.144 112.196L152.403 113.751C148.517 116.895 144.714 120.086 140.991 123.321L139.679 121.812ZM162.815 103.08C166.753 100.112 170.768 97.19 174.861 94.3174L176.01 95.9546C171.935 98.8141 167.938 101.722 164.019 104.677L162.815 103.08ZM187.212 85.9578C191.314 83.2805 195.49 80.6511 199.74 78.072L200.778 79.7817C196.546 82.3495 192.389 84.9672 188.305 87.6326L187.212 85.9578ZM212.713 70.4874C216.959 68.0972 221.275 65.7557 225.661 63.4651L226.586 65.2379C222.219 67.5188 217.922 69.8503 213.694 72.2302L212.713 70.4874ZM238.984 56.7691C243.429 54.6213 247.941 52.5244 252.522 50.4803L253.337 52.3067C248.774 54.3426 244.281 56.4309 239.855 58.5698L238.984 56.7691ZM266.09 44.6647C270.679 42.7772 275.332 40.9413 280.052 39.1589L280.758 41.0299C276.057 42.8055 271.421 44.6342 266.851 46.5143L266.09 44.6647ZM293.958 34.1292C298.588 32.5269 303.279 30.9749 308.031 29.4745L308.634 31.3818C303.899 32.8766 299.225 34.4229 294.612 36.0192L293.958 34.1292ZM322.471 25.1302C327.135 23.795 331.856 22.5084 336.633 21.2719L337.134 23.2081C332.374 24.4404 327.669 25.7225 323.021 27.053L322.471 25.1302ZM351.06 17.731C355.925 16.6011 360.847 15.5221 365.825 14.4952L366.229 16.454C361.267 17.4775 356.362 18.5531 351.513 19.6792L351.06 17.731ZM380.182 11.7078C385.01 10.8282 389.89 9.9967 394.821 9.21436L395.135 11.1896C390.218 11.9696 385.354 12.7986 380.541 13.6755L380.182 11.7078ZM409.77 7.01599C414.57 6.36487 419.418 5.75952 424.313 5.20081L424.54 7.18793C419.659 7.745 414.825 8.34863 410.039 8.9978L409.77 7.01599ZM439.038 3.67542C443.993 3.21356 448.995 2.79877 454.045 2.43188L454.19 4.42657C449.154 4.79254 444.165 5.20624 439.223 5.66675L439.038 3.67542ZM468.814 1.50336C473.672 1.245 478.572 1.03021 483.515 0.859863L483.584 2.85864C478.653 3.02863 473.765 3.24286 468.92 3.50055L468.814 1.50336ZM498.472 0.482605C503.454 0.402527 508.479 0.366821 513.546 0.376221L513.543 2.37622C508.487 2.36682 503.475 2.40247 498.504 2.48236L498.472 0.482605ZM528.133 0.526428C533.034 0.617859 537.973 0.750793 542.95 0.926025L542.88 2.9248C537.913 2.74994 532.985 2.61725 528.096 2.52606L528.133 0.526428ZM558 1.57904C560.527 1.70917 563.065 1.8501 565.611 2.00177L565.492 3.99823C562.951 3.84686 560.419 3.7063 557.897 3.57642L558 1.57904Z" fill="#53F3FB" fill-opacity="0.3"/>
</svg>
