<svg width="43" height="43" viewBox="0 0 43 43" fill="none" xmlns="http://www.w3.org/2000/svg">
<g clip-path="url(#clip0_904_2364)">
<path d="M0 32.2501C0 33.5172 0.503372 34.7324 1.39938 35.6285C2.29539 36.5245 3.51063 37.0278 4.77778 37.0278H38.2222C39.4894 37.0278 40.7046 36.5245 41.6006 35.6285C42.4966 34.7324 43 33.5172 43 32.2501V26.2778H0V32.2501Z" fill="#138808"/>
<path d="M43 16.7222V10.7499C43 9.4828 42.4966 8.26755 41.6006 7.37155C40.7046 6.47554 39.4894 5.97217 38.2222 5.97217H4.77778C3.51063 5.97217 2.29539 6.47554 1.39938 7.37155C0.503372 8.26755 0 9.4828 0 10.7499L0 16.7222H43Z" fill="#FF9933"/>
<path d="M0 16.3245H43V26.6767H0V16.3245Z" fill="#F7F7F7"/>
<path d="M21.5004 26.2777C24.1391 26.2777 26.2782 24.1386 26.2782 21.4999C26.2782 18.8613 24.1391 16.7222 21.5004 16.7222C18.8617 16.7222 16.7227 18.8613 16.7227 21.4999C16.7227 24.1386 18.8617 26.2777 21.5004 26.2777Z" fill="#000080"/>
<path d="M21.5 25.5312C23.7264 25.5312 25.5312 23.7264 25.5312 21.5C25.5312 19.2736 23.7264 17.4688 21.5 17.4688C19.2736 17.4688 17.4688 19.2736 17.4688 21.5C17.4688 23.7264 19.2736 25.5312 21.5 25.5312Z" fill="#F7F7F7"/>
<path d="M21.6194 20.0069L21.5 20.7833L21.3805 20.0069L21.5 17.6777L21.6194 20.0069ZM20.511 17.8079L20.9983 20.0881L21.3148 20.8072L21.2288 20.0272L20.511 17.8079ZM19.5888 18.1902L20.6495 20.2661L21.1416 20.8788L20.8573 20.1467L19.5888 18.1902ZM18.7969 18.7969L20.3593 20.5289L20.9935 20.9935L20.5289 20.3593L18.7969 18.7969ZM18.1902 19.5888L20.1467 20.8573L20.8788 21.1416L20.2661 20.6495L18.1902 19.5888ZM17.8079 20.511L20.0272 21.2288L20.8072 21.3148L20.0881 20.9983L17.8079 20.511ZM17.6777 21.5L20.0069 21.6194L20.7833 21.5L20.0069 21.3805L17.6777 21.5ZM17.8079 22.489L20.0881 22.0016L20.8072 21.6851L20.0272 21.7711L17.8079 22.489ZM18.1902 23.4111L20.2661 22.3504L20.8788 21.8583L20.1467 22.1426L18.1902 23.4111ZM18.7969 24.203L20.5289 22.6407L20.9935 22.0064L20.3593 22.471L18.7969 24.203ZM19.5888 24.8098L20.8573 22.8533L21.1416 22.1211L20.6495 22.7338L19.5888 24.8098ZM20.511 25.192L21.2288 22.9727L21.3148 22.1927L20.9983 22.9118L20.511 25.192ZM21.5 25.3222L21.6194 22.993L21.5 22.2166L21.3805 22.993L21.5 25.3222ZM22.489 25.192L22.0016 22.9118L21.6851 22.1927L21.7711 22.9727L22.489 25.192ZM23.4111 24.8098L22.3504 22.7338L21.8583 22.1211L22.1426 22.8533L23.4111 24.8098ZM24.203 24.203L22.6407 22.471L22.0064 22.0064L22.471 22.6407L24.203 24.203ZM24.8098 23.4111L22.8533 22.1426L22.1211 21.8583L22.7338 22.3504L24.8098 23.4111ZM25.192 22.489L22.9727 21.7711L22.1927 21.6851L22.9118 22.0016L25.192 22.489ZM25.3222 21.5L22.993 21.3805L22.2166 21.5L22.993 21.6194L25.3222 21.5ZM25.192 20.511L22.9118 20.9983L22.1927 21.3148L22.9727 21.2288L25.192 20.511ZM24.8098 19.5888L22.7338 20.6495L22.1211 21.1416L22.8533 20.8573L24.8098 19.5888ZM24.203 18.7969L22.471 20.3593L22.0064 20.9935L22.6407 20.5289L24.203 18.7969ZM23.4111 18.1902L22.1426 20.1467L21.8583 20.8788L22.3504 20.2661L23.4111 18.1902ZM22.489 17.8079L21.7711 20.0272L21.6851 20.8072L22.0016 20.0881L22.489 17.8079Z" fill="#6666B3"/>
<path d="M20.9742 17.7483C21.1062 17.7483 21.2131 17.6413 21.2131 17.5094C21.2131 17.3775 21.1062 17.2705 20.9742 17.2705C20.8423 17.2705 20.7354 17.3775 20.7354 17.5094C20.7354 17.6413 20.8423 17.7483 20.9742 17.7483Z" fill="#000080"/>
<path d="M19.9596 18.0206C20.0915 18.0206 20.1985 17.9137 20.1985 17.7817C20.1985 17.6498 20.0915 17.5428 19.9596 17.5428C19.8277 17.5428 19.7207 17.6498 19.7207 17.7817C19.7207 17.9137 19.8277 18.0206 19.9596 18.0206Z" fill="#000080"/>
<path d="M19.0494 18.545C19.1814 18.545 19.2883 18.4381 19.2883 18.3061C19.2883 18.1742 19.1814 18.0673 19.0494 18.0673C18.9175 18.0673 18.8105 18.1742 18.8105 18.3061C18.8105 18.4381 18.9175 18.545 19.0494 18.545Z" fill="#000080"/>
<path d="M18.3063 19.288C18.4382 19.288 18.5452 19.181 18.5452 19.0491C18.5452 18.9171 18.4382 18.8102 18.3063 18.8102C18.1743 18.8102 18.0674 18.9171 18.0674 19.0491C18.0674 19.181 18.1743 19.288 18.3063 19.288Z" fill="#000080"/>
<path d="M17.7819 20.1981C17.9138 20.1981 18.0207 20.0912 18.0207 19.9592C18.0207 19.8273 17.9138 19.7203 17.7819 19.7203C17.6499 19.7203 17.543 19.8273 17.543 19.9592C17.543 20.0912 17.6499 20.1981 17.7819 20.1981Z" fill="#000080"/>
<path d="M17.5094 21.2134C17.6413 21.2134 17.7483 21.1064 17.7483 20.9745C17.7483 20.8425 17.6413 20.7356 17.5094 20.7356C17.3775 20.7356 17.2705 20.8425 17.2705 20.9745C17.2705 21.1064 17.3775 21.2134 17.5094 21.2134Z" fill="#000080"/>
<path d="M17.5094 22.2645C17.6413 22.2645 17.7483 22.1576 17.7483 22.0256C17.7483 21.8937 17.6413 21.7867 17.5094 21.7867C17.3775 21.7867 17.2705 21.8937 17.2705 22.0256C17.2705 22.1576 17.3775 22.2645 17.5094 22.2645Z" fill="#000080"/>
<path d="M17.7819 23.2798C17.9138 23.2798 18.0207 23.1728 18.0207 23.0409C18.0207 22.909 17.9138 22.802 17.7819 22.802C17.6499 22.802 17.543 22.909 17.543 23.0409C17.543 23.1728 17.6499 23.2798 17.7819 23.2798Z" fill="#000080"/>
<path d="M18.3063 24.1899C18.4382 24.1899 18.5452 24.083 18.5452 23.951C18.5452 23.8191 18.4382 23.7122 18.3063 23.7122C18.1743 23.7122 18.0674 23.8191 18.0674 23.951C18.0674 24.083 18.1743 24.1899 18.3063 24.1899Z" fill="#000080"/>
<path d="M19.0494 24.9329C19.1814 24.9329 19.2883 24.8259 19.2883 24.694C19.2883 24.562 19.1814 24.4551 19.0494 24.4551C18.9175 24.4551 18.8105 24.562 18.8105 24.694C18.8105 24.8259 18.9175 24.9329 19.0494 24.9329Z" fill="#000080"/>
<path d="M19.9596 25.4573C20.0915 25.4573 20.1985 25.3503 20.1985 25.2184C20.1985 25.0864 20.0915 24.9795 19.9596 24.9795C19.8277 24.9795 19.7207 25.0864 19.7207 25.2184C19.7207 25.3503 19.8277 25.4573 19.9596 25.4573Z" fill="#000080"/>
<path d="M20.9742 25.7296C21.1062 25.7296 21.2131 25.6227 21.2131 25.4907C21.2131 25.3588 21.1062 25.2518 20.9742 25.2518C20.8423 25.2518 20.7354 25.3588 20.7354 25.4907C20.7354 25.6227 20.8423 25.7296 20.9742 25.7296Z" fill="#000080"/>
<path d="M22.026 25.7296C22.1579 25.7296 22.2649 25.6227 22.2649 25.4907C22.2649 25.3588 22.1579 25.2518 22.026 25.2518C21.8941 25.2518 21.7871 25.3588 21.7871 25.4907C21.7871 25.6227 21.8941 25.7296 22.026 25.7296Z" fill="#000080"/>
<path d="M23.0406 25.4573C23.1726 25.4573 23.2795 25.3503 23.2795 25.2184C23.2795 25.0864 23.1726 24.9795 23.0406 24.9795C22.9087 24.9795 22.8018 25.0864 22.8018 25.2184C22.8018 25.3503 22.9087 25.4573 23.0406 25.4573Z" fill="#000080"/>
<path d="M23.9508 24.9329C24.0827 24.9329 24.1897 24.8259 24.1897 24.694C24.1897 24.562 24.0827 24.4551 23.9508 24.4551C23.8189 24.4551 23.7119 24.562 23.7119 24.694C23.7119 24.8259 23.8189 24.9329 23.9508 24.9329Z" fill="#000080"/>
<path d="M24.694 24.1899C24.8259 24.1899 24.9329 24.083 24.9329 23.951C24.9329 23.8191 24.8259 23.7122 24.694 23.7122C24.562 23.7122 24.4551 23.8191 24.4551 23.951C24.4551 24.083 24.562 24.1899 24.694 24.1899Z" fill="#000080"/>
<path d="M25.2184 23.2798C25.3503 23.2798 25.4573 23.1728 25.4573 23.0409C25.4573 22.909 25.3503 22.802 25.2184 22.802C25.0864 22.802 24.9795 22.909 24.9795 23.0409C24.9795 23.1728 25.0864 23.2798 25.2184 23.2798Z" fill="#000080"/>
<path d="M25.4908 22.2645C25.6228 22.2645 25.7297 22.1576 25.7297 22.0256C25.7297 21.8937 25.6228 21.7867 25.4908 21.7867C25.3589 21.7867 25.252 21.8937 25.252 22.0256C25.252 22.1576 25.3589 22.2645 25.4908 22.2645Z" fill="#000080"/>
<path d="M25.4908 21.2134C25.6228 21.2134 25.7297 21.1064 25.7297 20.9745C25.7297 20.8425 25.6228 20.7356 25.4908 20.7356C25.3589 20.7356 25.252 20.8425 25.252 20.9745C25.252 21.1064 25.3589 21.2134 25.4908 21.2134Z" fill="#000080"/>
<path d="M25.2184 20.1981C25.3503 20.1981 25.4573 20.0912 25.4573 19.9592C25.4573 19.8273 25.3503 19.7203 25.2184 19.7203C25.0864 19.7203 24.9795 19.8273 24.9795 19.9592C24.9795 20.0912 25.0864 20.1981 25.2184 20.1981Z" fill="#000080"/>
<path d="M24.694 19.288C24.8259 19.288 24.9329 19.181 24.9329 19.0491C24.9329 18.9171 24.8259 18.8102 24.694 18.8102C24.562 18.8102 24.4551 18.9171 24.4551 19.0491C24.4551 19.181 24.562 19.288 24.694 19.288Z" fill="#000080"/>
<path d="M23.9508 18.545C24.0827 18.545 24.1897 18.4381 24.1897 18.3061C24.1897 18.1742 24.0827 18.0673 23.9508 18.0673C23.8189 18.0673 23.7119 18.1742 23.7119 18.3061C23.7119 18.4381 23.8189 18.545 23.9508 18.545Z" fill="#000080"/>
<path d="M23.0406 18.0206C23.1726 18.0206 23.2795 17.9137 23.2795 17.7817C23.2795 17.6498 23.1726 17.5428 23.0406 17.5428C22.9087 17.5428 22.8018 17.6498 22.8018 17.7817C22.8018 17.9137 22.9087 18.0206 23.0406 18.0206Z" fill="#000080"/>
<path d="M22.026 17.7483C22.1579 17.7483 22.2649 17.6413 22.2649 17.5094C22.2649 17.3775 22.1579 17.2705 22.026 17.2705C21.8941 17.2705 21.7871 17.3775 21.7871 17.5094C21.7871 17.6413 21.8941 17.7483 22.026 17.7483Z" fill="#000080"/>
<path d="M21.4998 22.575C22.0935 22.575 22.5748 22.0938 22.5748 21.5C22.5748 20.9063 22.0935 20.425 21.4998 20.425C20.9061 20.425 20.4248 20.9063 20.4248 21.5C20.4248 22.0938 20.9061 22.575 21.4998 22.575Z" fill="#000080"/>
</g>
<defs>
<clipPath id="clip0_904_2364">
<rect width="43" height="43" fill="white"/>
</clipPath>
</defs>
</svg>
