<?xml version="1.0" encoding="UTF-8"?>
<!DOCTYPE svg PUBLIC "-//W3C//DTD SVG 1.1//EN" "http://www.w3.org/Graphics/SVG/1.1/DTD/svg11.dtd">
<!-- Creator: CorelDRAW 2019 (64-Bit) -->
<svg xmlns="http://www.w3.org/2000/svg" xml:space="preserve" width="254.375mm" height="94.9836mm" version="1.1" style="shape-rendering:geometricPrecision; text-rendering:geometricPrecision; image-rendering:optimizeQuality; fill-rule:evenodd; clip-rule:evenodd"
viewBox="0 0 7344.19 2742.33"
 xmlns:xlink="http://www.w3.org/1999/xlink"
 xmlns:xodm="http://www.corel.com/coreldraw/odm/2003">
 <defs>
  <style type="text/css">
   <![CDATA[
    .str0 {stroke:#00AFF0;strokeWidth:40.74;stroke-miterlimit:10}
    .fil1 {fill:none;fill-rule:nonzero}
    .fil3 {fill:black;fill-rule:nonzero}
    .fil0 {fill:#00AFF0;fill-rule:nonzero}
    .fil2 {fill:#FFFCFF;fill-rule:nonzero}
   ]]>
  </style>
 </defs>
 <g id="Layer_x0020_1">
  <metadata id="CorelCorpID_0Corel-Layer"/>
  <g id="_2766530893360">
   <path class="fil0" d="M113.94 377.01l969.25 -278c10.57,-3.03 21.77,-3.03 32.35,-0.01l971.79 278.01c0,0 107.73,703.2 -146.56,1359.59 -13.74,35.47 -29.15,70.19 -45.29,104.63 -61.41,131.11 -267.86,569.45 -798.02,787.34 0,0 -477.89,-168.66 -779.55,-737.73 -113.98,-215.04 -180.51,-452 -200.95,-694.53 -20.01,-237.67 -44.49,-636.62 -3.02,-819.31z"/>
   <path class="fil1 str0" d="M48.54 319.37l1024.34 -296.68c10.61,-3.07 21.88,-3.1 32.51,-0.06l1037.22 296.74c0,0 114.03,710.78 -135.32,1430.79 -13.27,38.33 -35.18,98.81 -52.38,135.55 -65.47,139.8 -232.99,519.45 -867.82,834.55 0,0 -509.58,-179.85 -831.24,-786.66 -121.54,-229.31 -192.47,-481.96 -214.27,-740.58 -21.35,-253.42 -37.26,-678.85 6.96,-873.65z"/>
   <path class="fil2" d="M1474.94 1912.44l-122.86 -184.3c-3.27,-4.89 -0.23,-11.5 5.61,-12.12 63.91,-6.78 342.24,-56.42 356.6,-407.05 0,-206.73 -167.59,-374.31 -374.31,-374.31l-985.42 0 -157.87 -213.89 1247.69 0c0,0 509.26,94.21 476.16,608.57 0,0 10.19,448.15 -445.6,583.1z"/>
   <path class="fil2" d="M428.41 1016.14l659.49 0 10.19 0c290.4,19.1 290.28,295.37 290.28,295.37 0.38,128.59 -118.76,287.73 -249.54,287.73l238.61 309.21c4.46,5.78 0.34,14.17 -6.96,14.17l-237.48 0c-2.75,0 -5.34,-1.28 -7,-3.47l-354.41 -466.44c-15.44,-20.32 -0.95,-49.53 24.58,-49.53l243.34 0c52.03,0 94.21,-42.18 94.21,-94.21 0,-52.03 -42.19,-94.21 -94.21,-94.21l-471.07 0 -140.05 -198.61z"/>
   <path class="fil0" d="M3025.46 570.22c0,-42.96 -13.09,-76.91 -39.25,-101.84 -26.19,-24.93 -66.66,-37.41 -121.48,-37.41l-102.22 0 0 295.56 97.78 0c48.39,0 88.02,-14.57 118.88,-43.71 30.85,-29.14 46.29,-66.66 46.29,-112.6zm28.15 743.7l-107.41 -273.33c-18.77,-46.91 -40.37,-80.86 -64.82,-101.84 -24.44,-20.99 -48.77,-31.48 -72.96,-31.48l-45.93 0 0 406.66 -251.11 0 0 -1062.2 385.19 0c129.36,0 227.13,24.95 293.32,74.81 66.16,49.89 99.26,121.23 99.26,214.07 0,73.58 -21.49,135.54 -64.45,185.92 -42.95,50.37 -102.95,85.91 -179.99,106.66l0 2.95c65.18,20.27 117.03,74.82 155.55,163.71l138.52 314.07 -285.18 0z"/>
   <path class="fil0" d="M3884.03 857.63c-1,-49.87 -14.94,-89.5 -41.85,-118.88 -26.92,-29.38 -62.84,-44.07 -107.77,-44.07 -42.96,0 -79.88,15.44 -110.75,46.29 -30.87,30.86 -49.75,69.76 -56.67,116.66l317.04 0zm-314.81 143.69c5.43,53.84 27.77,94.83 67.03,122.98 39.25,28.13 91.23,42.21 155.93,42.21 47.41,0 95.31,-5.79 143.71,-17.41 48.39,-11.59 90.11,-27.27 125.17,-47.03l0 172.59c-35.06,16.79 -79.14,30.63 -132.22,41.49 -53.07,10.86 -110.73,16.3 -172.96,16.3 -136.29,0 -242.2,-33.81 -317.76,-101.49 -75.55,-67.64 -113.33,-162.45 -113.33,-284.42 0,-78.03 17.64,-148.4 52.95,-211.12 35.3,-62.7 84.57,-111.47 147.78,-146.29 63.21,-34.81 134.31,-52.22 213.33,-52.22 119.5,0 211.71,31.24 276.65,93.7 64.93,62.48 97.41,153.22 97.41,272.22l0 98.5 -543.69 0z"/>
   <path class="fil0" d="M4718.88 877.63c0,-45.42 -13.59,-83.58 -40.73,-114.44 -27.17,-30.86 -62.72,-46.29 -106.67,-46.29 -49.88,0 -89.14,17.15 -117.77,51.46 -28.65,34.35 -42.96,79.64 -42.96,135.93 0,54.82 14.44,98.15 43.33,129.99 28.89,31.86 66.54,47.78 112.96,47.78 42.46,0 78.39,-16.3 107.77,-48.89 29.38,-32.59 44.07,-73.57 44.07,-122.96l0 -32.59zm242.96 264.44c0,138.77 -41.11,244.3 -123.33,316.66 -82.21,72.33 -201.84,108.51 -358.88,108.51 -43.96,0 -90,-4.2 -138.14,-12.59 -48.14,-8.4 -85.07,-19.26 -110.74,-32.59l0 -193.33c86.42,48.89 167.15,73.33 242.22,73.33 75.07,0 134.32,-20.87 177.78,-62.58 43.44,-41.73 65.19,-97.15 65.19,-166.28l0 -27.42c-27.66,38.04 -61.37,67.29 -101.12,87.78 -39.75,20.5 -83.82,30.74 -132.21,30.74 -61.73,0 -117.16,-15.17 -166.28,-45.55 -49.15,-30.37 -87.3,-72.97 -114.45,-127.79 -27.16,-54.81 -40.74,-115.8 -40.74,-182.96 0,-113.57 32.34,-203.81 97.05,-270.73 64.68,-66.91 149.12,-100.37 253.33,-100.37 89.36,0 157.51,29.39 204.44,88.14l0 -70.36 245.91 0 0 587.39z"/>
   <path class="fil0" d="M5613.74 857.63c-1,-49.87 -14.94,-89.5 -41.85,-118.88 -26.92,-29.38 -62.84,-44.07 -107.77,-44.07 -42.96,0 -79.88,15.44 -110.74,46.29 -30.87,30.86 -49.76,69.76 -56.67,116.66l317.04 0zm-314.8 143.69c5.43,53.84 27.77,94.83 67.03,122.98 39.25,28.13 91.23,42.21 155.93,42.21 47.41,0 95.3,-5.79 143.7,-17.41 48.39,-11.59 90.11,-27.27 125.18,-47.03l0 172.59c-35.07,16.79 -79.14,30.63 -132.22,41.49 -53.07,10.86 -110.73,16.3 -172.96,16.3 -136.29,0 -242.21,-33.81 -317.76,-101.49 -75.55,-67.64 -113.33,-162.45 -113.33,-284.42 0,-78.03 17.64,-148.4 52.95,-211.12 35.3,-62.7 84.57,-111.47 147.78,-146.29 63.21,-34.81 134.31,-52.22 213.33,-52.22 119.51,0 211.71,31.24 276.65,93.7 64.93,62.48 97.41,153.22 97.41,272.22l0 98.5 -543.69 0z"/>
   <path class="fil0" d="M6435.25 1313.92l0 -421.48c0,-62.21 -9.51,-107.14 -28.52,-134.8 -19,-27.65 -49.51,-41.49 -91.47,-41.49 -39.51,0 -71.61,15.69 -96.29,47.03 -24.7,31.36 -37.03,70.74 -37.03,118.14l0 432.59 -245.93 0 0 -758.51 245.93 0 0 107.4c55.78,-83.94 136.03,-125.92 240.73,-125.92 171.86,0 257.77,104.19 257.77,312.59l0 464.44 -245.18 0z"/>
   <path class="fil0" d="M7344.18 1304.29c-19.26,8.4 -48.27,15.19 -87.03,20.37 -38.77,5.18 -74.94,7.78 -108.51,7.78 -89.4,0 -154.44,-19.14 -195.18,-57.41 -40.74,-38.27 -61.11,-104.81 -61.11,-199.63l0 -354.8 -160 0 0 -165.17 160 0 0 -162.22 245.18 -70.37 0 232.59 206.66 0 0 165.17 -206.66 0 0 314.07c0,41.97 8.76,72.21 26.29,90.74 17.53,18.52 44.82,27.77 81.85,27.77 31.11,0 63.94,-8.39 98.52,-25.19l0 176.3z"/>
   <path class="fil3" d="M2527.43 1994.92c8.86,6.94 21.05,12.71 36.59,17.33 15.53,4.63 31.01,6.94 46.41,6.94 15.54,0 27.61,-3.57 36.22,-10.69 8.6,-7.12 12.91,-16.53 12.91,-28.21 0,-10.4 -3.86,-18.87 -11.56,-25.43 -7.7,-6.54 -22.29,-12.89 -43.73,-19.07 -24.65,-7.31 -43.79,-17.85 -57.39,-31.59 -13.62,-13.74 -20.42,-29.4 -20.42,-46.99 0,-24.91 8.99,-44.33 26.97,-58.26 17.98,-13.93 43.07,-20.9 75.31,-20.9 26.7,0 50.01,3.85 69.92,11.56l0 49.49c-10.15,-5.26 -21.61,-9.37 -34.39,-12.33 -12.78,-2.95 -25.59,-4.42 -38.43,-4.42 -15.28,0 -26.87,2.82 -34.76,8.47 -7.89,5.64 -11.84,13.73 -11.84,24.26 0,8.86 4.07,16.73 12.23,23.6 8.15,6.87 22.69,13.51 43.62,19.93 51.36,15.53 77.04,41.74 77.04,78.59 0,16.95 -4.59,32.03 -13.77,45.25 -9.19,13.23 -22.08,23.41 -38.71,30.53 -16.63,7.13 -35.15,10.69 -55.57,10.69 -29.41,0 -54.96,-5.65 -76.65,-16.95l0 -51.81z"/>
   <path class="fil3" d="M2879.92 1939.84c-0.25,-15.03 -4.31,-26.81 -12.13,-35.35 -7.84,-8.53 -19.65,-12.8 -35.44,-12.8 -8.47,0 -16.63,2.12 -24.45,6.35 -7.84,4.24 -14.07,10.44 -18.69,18.59 -4.61,8.15 -6.93,15.89 -6.93,23.21l97.65 0zm-97.65 36.6c0,15.8 5.77,28.54 17.33,38.23 11.56,9.7 26.78,14.53 45.65,14.53 25.55,0 49.11,-5.91 70.69,-17.72l0 35.25c-12.06,6.17 -23.82,10.53 -35.25,13.1 -11.43,2.57 -24.98,3.85 -40.63,3.85 -24.02,0 -43.86,-4.62 -59.51,-13.86 -15.67,-9.25 -26.97,-21.63 -33.91,-37.18 -6.93,-15.53 -10.4,-32.48 -10.4,-50.85 0,-32.35 9.11,-57.9 27.35,-76.65 18.23,-18.74 41.86,-28.18 70.88,-28.31 17.34,0 32.51,3.37 45.56,10.1 13.03,6.74 23.46,17.14 31.29,31.2 7.84,14.07 11.75,31.63 11.75,52.69l0 25.62 -140.79 0z"/>
   <path class="fil3" d="M3097.19 2050.2c-15.41,8.98 -34.35,13.47 -56.81,13.47 -29.79,0 -53.65,-9.4 -71.56,-28.21 -17.9,-18.81 -26.86,-42.34 -26.86,-70.59 0,-22.21 4.33,-41.37 13,-57.49 8.67,-16.11 20.8,-28.57 36.4,-37.37 15.61,-8.8 34.76,-13.19 57.5,-13.19 18.62,0 34.73,3.46 48.34,10.39l0 43.54c-14.76,-10.02 -30.24,-15.03 -46.42,-15.03 -17.72,0 -32.13,5.98 -43.25,17.91 -11.1,11.95 -16.65,27.74 -16.65,47.38 0,19.9 5.22,35.47 15.69,46.71 10.46,11.25 24.94,16.85 43.43,16.85 17.08,0 32.81,-4.87 47.19,-14.63l0 40.26z"/>
   <path class="fil3" d="M3254.57 2058.87l0 -30.63 -1.92 0c-13.87,23.63 -33.25,35.44 -58.17,35.44 -47.64,0 -71.46,-27.67 -71.46,-83.02l0 -119.02 47.57 0 0 113.44c0,33 13.03,49.5 39.1,49.5 12.06,0 22.25,-4.63 30.53,-13.87 8.28,-9.25 12.43,-22.47 12.43,-39.67l0 -109.4 47.38 0 0 197.23 -45.46 0z"/>
   <path class="fil3" d="M3475.13 1906.52c-9.13,-3.85 -19.14,-5.77 -30.05,-5.77 -14.9,0 -27.23,5.19 -36.98,15.59 -9.76,10.4 -14.65,24.39 -14.65,41.99l0 100.54 -47.18 0 0 -197.23 47.18 0 0 32.75c12.32,-24.15 32.81,-36.22 61.45,-36.22 7.58,0 14.32,1.03 20.23,3.09l0 45.26z"/>
   <path class="fil3" d="M3535.04 1816.76c-7.83,0 -14.51,-2.57 -20.03,-7.71 -5.52,-5.13 -8.27,-11.55 -8.27,-19.25 0,-7.97 2.79,-14.52 8.37,-19.65 5.59,-5.13 12.23,-7.71 19.93,-7.71 8.47,0 15.35,2.64 20.6,7.89 5.28,5.27 7.91,11.75 7.91,19.47 0,7.83 -2.73,14.28 -8.19,19.35 -5.46,5.07 -12.22,7.61 -20.32,7.61zm-24.07 242.11l0 -164.49 -34.68 0 0 -32.75 81.87 0 0 197.24 -47.19 0z"/>
   <path class="fil3" d="M3732.28 2058.87l0 -110.37c0,-35.18 -12.52,-52.78 -37.56,-52.78 -12.58,0 -23.18,4.89 -31.78,14.65 -8.6,9.76 -12.9,22.09 -12.9,36.98l0 111.52 -47 0 0 -197.23 47 0 0 28.69c14.51,-22.34 35.37,-33.51 62.6,-33.51 44.43,0 66.64,27.15 66.64,81.47l0 120.57 -47 0z"/>
   <path class="fil3" d="M3952.64 1940.03c0,-9.76 -2.22,-17.98 -6.64,-24.65 -4.43,-6.68 -10.05,-11.63 -16.86,-14.83 -6.82,-3.21 -14.25,-4.83 -22.35,-4.83 -16.31,0 -28.89,5.17 -37.75,15.51 -8.86,10.34 -13.29,24.95 -13.29,43.83 0,7.96 1.76,16.08 5.3,24.35 3.53,8.29 8.8,14.96 15.8,20.04 7,5.07 15.82,7.61 26.48,7.61 16.43,0 28.76,-5.07 36.98,-15.22 8.22,-10.13 12.32,-22.47 12.32,-36.98l0 -14.83zm46.99 87.63c0,31.72 -9.98,55.77 -29.94,72.14 -19.97,16.37 -47.16,24.56 -81.57,24.56 -11.94,0 -24.3,-1.41 -37.09,-4.24 -12.76,-2.83 -23.65,-6.36 -32.65,-10.59l0 -39.87c10.41,5.01 22.15,9.14 35.25,12.41 13.1,3.29 25.55,4.92 37.37,4.92 40.96,0 61.44,-17.98 61.44,-53.93l0 -20.23c-14.77,22.08 -35.82,33.13 -63.18,33.13 -24.14,0 -43.88,-8.7 -59.22,-26.09 -15.35,-17.4 -23.02,-38.89 -23.02,-64.43 0,-27.48 8.01,-50.78 24.07,-69.92 16.06,-19.12 38.27,-28.69 66.64,-28.69 24.02,0 42.25,8.86 54.71,26.57l0 -21.75 47.19 0 0 166.02z"/>
   <path class="fil3" d="M4254.68 1958.72l0 100.15 -48.35 0 0 -99 -89.37 -177.19 54.71 0 55.47 114.79c1.91,3.98 3.59,8.41 5,13.29 1.41,-4.24 3.22,-8.61 5.39,-13.1l57.22 -114.98 51.42 0 -91.49 176.04z"/>
   <path class="fil3" d="M4414.75 1895.72c-16.81,0 -29.97,5.81 -39.49,17.44 -9.5,11.62 -14.25,27.7 -14.25,48.25 0,20.03 4.85,35.57 14.53,46.61 9.71,11.04 22.89,16.56 39.59,16.56 17.46,0 30.49,-5.25 39.1,-15.79 8.6,-10.53 12.91,-26.71 12.91,-48.54 0,-21.19 -4.65,-37.23 -13.97,-48.16 -9.31,-10.91 -22.11,-16.37 -38.42,-16.37zm-2.31 167.95c-30.56,0 -54.89,-9.11 -73,-27.35 -18.11,-18.23 -27.17,-42.7 -27.17,-73.37 0,-33.27 9.37,-59.27 28.12,-78.02 18.75,-18.74 44.38,-28.11 76.86,-28.11 31.07,0 55.27,9.12 72.61,27.35 17.33,18.23 26,43.08 26,74.54 0,20.8 -4.33,39.12 -13.01,54.98 -8.66,15.87 -20.95,28.16 -36.88,36.88 -15.92,8.74 -33.77,13.1 -53.55,13.1z"/>
   <path class="fil3" d="M4675.17 2058.87l0 -30.63 -1.92 0c-13.87,23.63 -33.26,35.44 -58.17,35.44 -47.65,0 -71.46,-27.67 -71.46,-83.02l0 -119.02 47.58 0 0 113.44c0,33 13.03,49.5 39.1,49.5 12.06,0 22.23,-4.63 30.52,-13.87 8.27,-9.25 12.43,-22.47 12.43,-39.67l0 -109.4 47.37 0 0 197.23 -45.46 0z"/>
   <path class="fil3" d="M4895.73 1906.52c-9.13,-3.85 -19.14,-5.77 -30.05,-5.77 -14.89,0 -27.23,5.19 -36.98,15.59 -9.76,10.4 -14.64,24.39 -14.64,41.99l0 100.54 -47.19 0 0 -197.23 47.19 0 0 32.75c12.33,-24.15 32.81,-36.22 61.45,-36.22 7.57,0 14.31,1.03 20.22,3.09l0 45.26z"/>
   <path class="fil3" d="M5074.31 1824.85l0 191.84 35.05 0c17.99,0 32.65,-1.99 44.02,-5.97 11.37,-3.98 21.47,-10.4 30.33,-19.27 8.86,-8.85 15.22,-19.38 19.07,-31.57 3.85,-12.2 5.79,-26.13 5.79,-41.8 0,-15.28 -1.8,-28.86 -5.4,-40.74 -3.59,-11.87 -9.8,-21.92 -18.59,-30.14 -8.79,-8.21 -18.72,-14 -29.76,-17.34 -11.04,-3.34 -25.94,-5.01 -44.67,-5.01l-35.83 0zm-48.34 234.02l0 -276.2 85.9 0c46.99,0 83.36,11.79 109.1,35.34 25.75,23.57 38.61,56.66 38.61,99.29 0,26.71 -5.7,50.98 -17.13,72.81 -11.43,21.83 -28.51,38.73 -51.23,50.74 -22.73,12.02 -49.89,18.02 -81.48,18.02l-83.77 0z"/>
   <path class="fil3" d="M5326.64 1816.76c-7.84,0 -14.51,-2.57 -20.03,-7.71 -5.52,-5.13 -8.28,-11.55 -8.28,-19.25 0,-7.97 2.79,-14.52 8.38,-19.65 5.58,-5.13 12.22,-7.71 19.93,-7.71 8.47,0 15.34,2.64 20.61,7.89 5.26,5.27 7.9,11.75 7.9,19.47 0,7.83 -2.74,14.28 -8.19,19.35 -5.46,5.07 -12.23,7.61 -20.32,7.61zm-24.08 242.11l0 -164.49 -34.67 0 0 -32.75 81.87 0 0 197.24 -47.2 0z"/>
   <path class="fil3" d="M5525.62 1940.03c0,-9.76 -2.22,-17.98 -6.64,-24.65 -4.44,-6.68 -10.06,-11.63 -16.87,-14.83 -6.8,-3.21 -14.25,-4.83 -22.34,-4.83 -16.32,0 -28.9,5.17 -37.75,15.51 -8.86,10.34 -13.3,24.95 -13.3,43.83 0,7.96 1.77,16.08 5.31,24.35 3.52,8.29 8.79,14.96 15.8,20.04 6.99,5.07 15.82,7.61 26.47,7.61 16.44,0 28.76,-5.07 36.98,-15.22 8.22,-10.13 12.33,-22.47 12.33,-36.98l0 -14.83zm46.99 87.63c0,31.72 -9.98,55.77 -29.95,72.14 -19.96,16.37 -47.16,24.56 -81.56,24.56 -11.95,0 -24.31,-1.41 -37.09,-4.24 -12.77,-2.83 -23.66,-6.36 -32.64,-10.59l0 -39.87c10.4,5.01 22.15,9.14 35.24,12.41 13.1,3.29 25.55,4.92 37.37,4.92 40.97,0 61.44,-17.98 61.44,-53.93l0 -20.23c-14.76,22.08 -35.81,33.13 -63.17,33.13 -24.14,0 -43.88,-8.7 -59.23,-26.09 -15.35,-17.4 -23.02,-38.89 -23.02,-64.43 0,-27.48 8.03,-50.78 24.08,-69.92 16.05,-19.12 38.27,-28.69 66.64,-28.69 24.02,0 42.25,8.86 54.69,26.57l0 -21.75 47.2 0 0 166.02z"/>
   <path class="fil3" d="M5653.71 1816.76c-7.83,0 -14.51,-2.57 -20.03,-7.71 -5.52,-5.13 -8.27,-11.55 -8.27,-19.25 0,-7.97 2.79,-14.52 8.37,-19.65 5.59,-5.13 12.23,-7.71 19.93,-7.71 8.47,0 15.35,2.64 20.61,7.89 5.27,5.27 7.9,11.75 7.9,19.47 0,7.83 -2.73,14.28 -8.19,19.35 -5.46,5.07 -12.22,7.61 -20.32,7.61zm-24.07 242.11l0 -164.49 -34.68 0 0 -32.75 81.87 0 0 197.24 -47.19 0z"/>
   <path class="fil3" d="M5839.41 2057.52c-12.71,4.24 -26.91,6.35 -42.57,6.35 -20.93,0 -36.86,-5.26 -47.77,-15.79 -10.91,-10.53 -16.38,-25.68 -16.38,-45.46l0 -108.25 -39.67 0 0 -32.74 39.67 0 0 -47 42.57 -12.33 0 59.33 64.14 0 0 32.74 -64.14 0 0 94c0,12.71 2.95,21.86 8.85,27.44 5.91,5.59 15.22,8.38 27.93,8.38 7.97,0 17.08,-1.35 27.36,-4.04l0 37.36z"/>
   <path class="fil3" d="M5895.86 1999.94c0,8.85 3.01,15.98 9.05,21.38 6.02,5.39 14.51,8.09 25.42,8.09 15.91,0 28.79,-4.79 38.61,-14.35 9.83,-9.57 14.74,-21.48 14.74,-35.72l0 -17.73 -47.57 5.4c-13.74,1.79 -23.89,5.3 -30.43,10.5 -6.55,5.19 -9.82,12.68 -9.82,22.44zm87.44 58.93l0 -24.45c-6.93,9.88 -16.37,17.23 -28.31,22.05 -11.94,4.81 -24.97,7.22 -39.1,7.22 -11.68,0 -21.53,-1.91 -29.57,-5.68 -8.03,-3.79 -14.38,-8.57 -19.07,-14.35 -4.69,-5.78 -8.34,-12.19 -10.98,-19.26 -2.64,-7.06 -3.94,-14.83 -3.94,-23.31 0,-20.16 5.97,-35.64 17.91,-46.41 11.95,-10.8 30.82,-18.18 56.63,-22.15l56.82 -6.74c-0.25,-11.31 -3.55,-19.51 -9.83,-24.65 -6.29,-5.14 -16.05,-7.71 -29.27,-7.71 -12.84,0 -26.48,1.7 -40.93,5.1 -14.45,3.4 -27.84,8.38 -40.17,14.93l0 -38.71c10.8,-5.4 23.99,-9.73 39.59,-13 15.59,-3.29 31.17,-4.92 46.71,-4.92 27.21,0 46.89,5.83 59.03,17.53 12.13,11.68 18.2,31.46 18.2,59.32l0 125.2 -43.73 0z"/>
   <polygon class="fil3" points="6069.41,1766.88 6116.6,1766.88 6116.6,2058.87 6069.41,2058.87 "/>
   <path class="fil3" d="M6365.86 1832.74c-0.76,4.62 -1.8,8.73 -3.09,12.33l-36.59 103.42 79.36 0 -36.8 -103.24c-1.02,-2.3 -1.99,-6.48 -2.88,-12.52zm78.59 226.12l-24.85 -68.95 -107.09 0 -23.69 68.95 -52.78 0 104.58 -276.19 52.02 0 104.97 276.19 -53.16 0z"/>
   <path class="fil3" d="M6503.41 2005.9c20.54,12.33 41.22,18.49 62.02,18.49 14.38,0 24.87,-2.09 31.49,-6.26 6.61,-4.17 9.92,-9.72 9.92,-16.66 0,-7.05 -3.44,-12.79 -10.3,-17.23 -6.87,-4.43 -19.63,-8.69 -38.23,-12.8 -36.6,-8.34 -54.9,-26.84 -54.9,-55.47 0,-12.58 3.37,-23.41 10.11,-32.46 6.73,-9.05 16.07,-16.05 28.02,-20.99 11.95,-4.94 24.97,-7.41 39.1,-7.41 23.12,0 43.47,2.89 61.06,8.67l0 44.68c-13.62,-6.03 -24.05,-9.95 -31.3,-11.75 -7.26,-1.78 -14.8,-2.69 -22.63,-2.69 -13.1,0 -22.51,1.79 -28.21,5.39 -5.73,3.61 -8.58,8.03 -8.58,13.29 0,3.98 1,7.28 2.99,9.92 1.99,2.63 5.23,5.07 9.73,7.32 4.49,2.25 14.07,5.48 28.69,9.72 22.85,6.56 38.89,14.26 48.06,23.12 9.17,8.86 13.77,20.81 13.77,35.82 0,19.65 -7.74,35.41 -23.21,47.29 -15.47,11.88 -36.12,17.82 -61.93,17.82 -25.03,0 -46.92,-3.85 -65.67,-11.56l0 -46.22z"/>
   <path class="fil3" d="M6672.91 2005.9c20.55,12.33 41.22,18.49 62.02,18.49 14.38,0 24.87,-2.09 31.49,-6.26 6.61,-4.17 9.92,-9.72 9.92,-16.66 0,-7.05 -3.44,-12.79 -10.3,-17.23 -6.87,-4.43 -19.62,-8.69 -38.23,-12.8 -36.6,-8.34 -54.9,-26.84 -54.9,-55.47 0,-12.58 3.37,-23.41 10.11,-32.46 6.73,-9.05 16.07,-16.05 28.02,-20.99 11.95,-4.94 24.97,-7.41 39.1,-7.41 23.12,0 43.47,2.89 61.06,8.67l0 44.68c-13.62,-6.03 -24.05,-9.95 -31.3,-11.75 -7.26,-1.78 -14.8,-2.69 -22.63,-2.69 -13.1,0 -22.51,1.79 -28.21,5.39 -5.73,3.61 -8.58,8.03 -8.58,13.29 0,3.98 1,7.28 2.99,9.92 1.99,2.63 5.23,5.07 9.73,7.32 4.49,2.25 14.07,5.48 28.69,9.72 22.85,6.56 38.89,14.26 48.06,23.12 9.17,8.86 13.77,20.81 13.77,35.82 0,19.65 -7.74,35.41 -23.21,47.29 -15.47,11.88 -36.12,17.82 -61.92,17.82 -25.03,0 -46.92,-3.85 -65.67,-11.56l0 -46.22z"/>
   <path class="fil3" d="M6982.84 1939.84c-0.25,-15.03 -4.31,-26.81 -12.13,-35.35 -7.84,-8.53 -19.65,-12.8 -35.44,-12.8 -8.47,0 -16.63,2.12 -24.45,6.35 -7.84,4.24 -14.07,10.44 -18.69,18.59 -4.61,8.15 -6.93,15.89 -6.93,23.21l97.66 0zm-97.66 36.6c0,15.8 5.77,28.54 17.33,38.23 11.56,9.7 26.78,14.53 45.65,14.53 25.55,0 49.11,-5.91 70.69,-17.72l0 35.25c-12.06,6.17 -23.82,10.53 -35.25,13.1 -11.43,2.57 -24.97,3.85 -40.63,3.85 -24.02,0 -43.86,-4.62 -59.52,-13.86 -15.67,-9.25 -26.96,-21.63 -33.9,-37.18 -6.94,-15.53 -10.4,-32.48 -10.4,-50.85 0,-32.35 9.11,-57.9 27.35,-76.65 18.23,-18.74 41.86,-28.18 70.88,-28.31 17.33,0 32.51,3.37 45.56,10.1 13.03,6.74 23.46,17.14 31.29,31.2 7.84,14.07 11.75,31.63 11.75,52.69l0 25.62 -140.8 0z"/>
   <path class="fil3" d="M7177.19 2057.52c-12.71,4.24 -26.91,6.35 -42.56,6.35 -20.93,0 -36.86,-5.26 -47.77,-15.79 -10.91,-10.53 -16.38,-25.68 -16.38,-45.46l0 -108.25 -39.67 0 0 -32.74 39.67 0 0 -47 42.57 -12.33 0 59.33 64.14 0 0 32.74 -64.14 0 0 94c0,12.71 2.95,21.86 8.85,27.44 5.91,5.59 15.22,8.38 27.93,8.38 7.98,0 17.08,-1.35 27.36,-4.04l0 37.36z"/>
   <path class="fil3" d="M7193.38 2005.9c20.54,12.33 41.22,18.49 62.02,18.49 14.38,0 24.87,-2.09 31.49,-6.26 6.61,-4.17 9.92,-9.72 9.92,-16.66 0,-7.05 -3.44,-12.79 -10.3,-17.23 -6.88,-4.43 -19.63,-8.69 -38.24,-12.8 -36.59,-8.34 -54.9,-26.84 -54.9,-55.47 0,-12.58 3.37,-23.41 10.11,-32.46 6.73,-9.05 16.07,-16.05 28.02,-20.99 11.95,-4.94 24.97,-7.41 39.1,-7.41 23.12,0 43.47,2.89 61.06,8.67l0 44.68c-13.62,-6.03 -24.05,-9.95 -31.3,-11.75 -7.26,-1.78 -14.8,-2.69 -22.63,-2.69 -13.1,0 -22.51,1.79 -28.21,5.39 -5.72,3.61 -8.57,8.03 -8.57,13.29 0,3.98 1,7.28 2.98,9.92 1.99,2.63 5.24,5.07 9.73,7.32 4.49,2.25 14.07,5.48 28.69,9.72 22.86,6.56 38.89,14.26 48.07,23.12 9.17,8.86 13.77,20.81 13.77,35.82 0,19.65 -7.74,35.41 -23.21,47.29 -15.47,11.88 -36.12,17.82 -61.93,17.82 -25.04,0 -46.92,-3.85 -65.67,-11.56l0 -46.22z"/>
  </g>
 </g>
</svg>
