<svg width="542" height="757" viewBox="0 0 542 757" fill="none" xmlns="http://www.w3.org/2000/svg">
<path d="M364.02 500.011L363.515 499.147C363.451 499.185 363.391 499.23 363.336 499.281L364.02 500.011ZM458.027 756.913C458.532 757.138 459.123 756.912 459.348 756.407C459.573 755.903 459.346 755.312 458.842 755.087L458.027 756.913ZM7.38089 4.71101C7.89876 4.90291 8.47415 4.63866 8.66605 4.12078C8.85795 3.60291 8.5937 3.02752 8.07582 2.83562L7.38089 4.71101ZM22.0065 7.38805C21.4765 7.23275 20.921 7.53651 20.7657 8.06652C20.6104 8.59652 20.9142 9.15206 21.4442 9.30735L22.0065 7.38805ZM35.5985 13.1174C36.1345 13.2505 36.6769 12.9239 36.81 12.3878C36.9431 11.8518 36.6164 11.3094 36.0804 11.1763L35.5985 13.1174ZM50.3516 14.4768C49.8117 14.3603 49.2796 14.7035 49.1632 15.2434C49.0467 15.7833 49.3899 16.3153 49.9298 16.4318L50.3516 14.4768ZM64.381 19.3569C64.9236 19.46 65.447 19.1037 65.5501 18.5611C65.6532 18.0185 65.2969 17.4951 64.7543 17.392L64.381 19.3569ZM79.1542 19.9706C78.6096 19.8787 78.0936 20.2457 78.0017 20.7903C77.9098 21.3349 78.2767 21.8508 78.8213 21.9428L79.1542 19.9706ZM93.4197 24.2699C93.9659 24.3521 94.4752 23.976 94.5574 23.4299C94.6396 22.8838 94.2635 22.3744 93.7174 22.2922L93.4197 24.2699ZM108.191 24.3539C107.644 24.2801 107.14 24.6641 107.066 25.2114C106.993 25.7587 107.377 26.2622 107.924 26.336L108.191 24.3539ZM122.476 28.1922C123.024 28.2584 123.522 27.8675 123.588 27.3192C123.654 26.7709 123.264 26.2728 122.715 26.2066L122.476 28.1922ZM137.284 27.8711C136.734 27.8118 136.241 28.2088 136.182 28.7579C136.123 29.307 136.52 29.8002 137.069 29.8596L137.284 27.8711ZM151.691 31.3544C152.24 31.4074 152.729 31.0048 152.782 30.4551C152.835 29.9054 152.433 29.4167 151.883 29.3636L151.691 31.3544ZM166.512 30.6987C165.962 30.6514 165.478 31.059 165.43 31.6093C165.383 32.1595 165.791 32.644 166.341 32.6914L166.512 30.6987ZM181.027 33.8836C181.578 33.9257 182.058 33.5134 182.1 32.9627C182.142 32.412 181.73 31.9315 181.179 31.8894L181.027 33.8836ZM195.826 32.942C195.275 32.9048 194.798 33.3214 194.761 33.8724C194.723 34.4235 195.14 34.9003 195.691 34.9375L195.826 32.942ZM210.286 35.8606C210.837 35.8932 211.311 35.4727 211.343 34.9214C211.376 34.3701 210.955 33.8967 210.404 33.8641L210.286 35.8606ZM225.032 34.6717C224.481 34.6434 224.01 35.0676 223.982 35.6191C223.954 36.1707 224.378 36.6408 224.929 36.6691L225.032 34.6717ZM239.645 37.3703C240.197 37.3946 240.664 36.967 240.688 36.4152C240.712 35.8635 240.285 35.3965 239.733 35.3722L239.645 37.3703ZM254.451 35.9686C253.899 35.9481 253.435 36.3789 253.414 36.9308C253.394 37.4827 253.825 37.9467 254.376 37.9672L254.451 35.9686ZM268.967 38.4607C269.519 38.4776 269.98 38.0437 269.997 37.4917C270.014 36.9397 269.58 36.4785 269.028 36.4616L268.967 38.4607ZM283.724 36.8655C283.172 36.852 282.713 37.2887 282.7 37.8408C282.686 38.3929 283.123 38.8514 283.675 38.8649L283.724 36.8655ZM298.421 39.1811C298.973 39.1913 299.429 38.752 299.44 38.1998C299.45 37.6476 299.01 37.1917 298.458 37.1815L298.421 39.1811ZM313.042 37.4107C312.49 37.4035 312.037 37.8454 312.03 38.3976C312.022 38.9499 312.464 39.4034 313.017 39.4105L313.042 37.4107ZM327.785 39.562C328.337 39.5662 328.788 39.1219 328.792 38.5696C328.796 38.0173 328.352 37.5662 327.8 37.562L327.785 39.562ZM342.422 37.6356C341.87 37.6342 341.421 38.0808 341.42 38.6331C341.418 39.1854 341.865 39.6342 342.417 39.6356L342.422 37.6356ZM357.472 39.8041C358.024 39.8272 358.49 39.3987 358.513 38.8469C358.536 38.2951 358.108 37.829 357.556 37.8058L357.472 39.8041ZM372.749 39.086C372.201 39.0164 371.7 39.4042 371.631 39.9521C371.561 40.5 371.949 41.0005 372.497 41.0701L372.749 39.086ZM387.361 43.6024C387.901 43.7182 388.433 43.3743 388.548 42.8343C388.664 42.2943 388.32 41.7627 387.78 41.6469L387.361 43.6024ZM402.544 45.4746C402.016 45.3135 401.457 45.6111 401.296 46.1394C401.134 46.6676 401.432 47.2265 401.96 47.3876L402.544 45.4746ZM416.192 52.3943C416.705 52.5994 417.287 52.3498 417.492 51.837C417.697 51.3242 417.448 50.7423 416.935 50.5372L416.192 52.3943ZM430.857 56.7882C430.363 56.5413 429.762 56.7416 429.516 57.2356C429.269 57.7296 429.469 58.3303 429.963 58.5772L430.857 56.7882ZM443.176 65.8729C443.648 66.1593 444.263 66.0087 444.549 65.5365C444.836 65.0643 444.685 64.4493 444.213 64.1629L443.176 65.8729ZM456.926 72.5924C456.478 72.269 455.853 72.3698 455.529 72.8175C455.206 73.2653 455.307 73.8903 455.755 74.2137L456.926 72.5924ZM467.633 83.5271C468.054 83.8846 468.685 83.8332 469.042 83.4123C469.4 82.9914 469.348 82.3603 468.927 82.0028L467.633 83.5271ZM480.16 92.3177C479.768 91.9288 479.134 91.9314 478.745 92.3235C478.357 92.7156 478.359 93.3488 478.751 93.7377L480.16 92.3177ZM489.059 104.769C489.421 105.187 490.052 105.232 490.47 104.871C490.887 104.509 490.933 103.878 490.571 103.46L489.059 104.769ZM500.117 115.353C499.787 114.909 499.161 114.817 498.718 115.147C498.274 115.476 498.182 116.102 498.512 116.546L500.117 115.353ZM507.069 128.991C507.365 129.458 507.982 129.596 508.449 129.3C508.915 129.004 509.053 128.386 508.757 127.92L507.069 128.991ZM516.457 141.085C516.196 140.599 515.59 140.416 515.103 140.678C514.617 140.939 514.434 141.545 514.695 142.032L516.457 141.085ZM521.362 155.593C521.587 156.098 522.179 156.323 522.683 156.098C523.187 155.872 523.413 155.28 523.187 154.776L521.362 155.593ZM528.913 168.902C528.724 168.383 528.15 168.115 527.631 168.305C527.112 168.494 526.845 169.068 527.034 169.586L528.913 168.902ZM531.696 183.944C531.848 184.475 532.402 184.782 532.933 184.631C533.464 184.479 533.771 183.925 533.619 183.394L531.696 183.944ZM537.29 198.184C537.176 197.643 536.645 197.298 536.105 197.412C535.564 197.526 535.219 198.056 535.333 198.597L537.29 198.184ZM537.932 213.472C538.008 214.019 538.513 214.401 539.06 214.325C539.607 214.249 539.989 213.744 539.913 213.197L537.932 213.472ZM541.483 228.362C541.445 227.811 540.968 227.395 540.417 227.433C539.866 227.471 539.45 227.948 539.488 228.499L541.483 228.362ZM540 243.61C540 244.163 540.447 244.611 540.999 244.611C541.552 244.611 542 244.164 542 243.611L540 243.61ZM541.471 258.859C541.509 258.308 541.093 257.83 540.542 257.793C539.991 257.755 539.514 258.171 539.476 258.722L541.471 258.859ZM537.937 273.721C537.863 274.269 538.246 274.773 538.793 274.847C539.34 274.922 539.844 274.539 539.919 273.992L537.937 273.721ZM537.366 288.998C537.477 288.457 537.127 287.928 536.586 287.818C536.045 287.708 535.517 288.057 535.407 288.598L537.366 288.998ZM531.909 303.303C531.764 303.835 532.079 304.385 532.612 304.53C533.145 304.675 533.694 304.36 533.839 303.827L531.909 303.303ZM529.366 318.441C529.544 317.918 529.264 317.35 528.742 317.172C528.219 316.994 527.651 317.273 527.473 317.796L529.366 318.441ZM522.18 331.916C521.971 332.427 522.215 333.011 522.726 333.22C523.237 333.429 523.821 333.185 524.031 332.674L522.18 331.916ZM517.861 346.561C518.1 346.063 517.89 345.466 517.392 345.227C516.894 344.988 516.297 345.198 516.058 345.696L517.861 346.561ZM509.126 359.162C508.859 359.646 509.036 360.254 509.519 360.52C510.003 360.787 510.611 360.611 510.878 360.127L509.126 359.162ZM503.155 373.29C503.447 372.822 503.304 372.205 502.835 371.913C502.366 371.621 501.749 371.764 501.457 372.232L503.155 373.29ZM493.171 384.792C492.855 385.245 492.966 385.868 493.419 386.184C493.873 386.5 494.496 386.389 494.812 385.935L493.171 384.792ZM485.779 398.235C486.117 397.798 486.037 397.17 485.6 396.832C485.163 396.494 484.534 396.575 484.197 397.012L485.779 398.235ZM474.659 408.773C474.301 409.194 474.353 409.825 474.773 410.183C475.194 410.541 475.825 410.489 476.183 410.069L474.659 408.773ZM466.117 421.39C466.493 420.986 466.469 420.353 466.065 419.977C465.66 419.601 465.027 419.624 464.652 420.029L466.117 421.39ZM454.03 430.983C453.638 431.371 453.634 432.004 454.022 432.397C454.411 432.79 455.044 432.793 455.437 432.405L454.03 430.983ZM444.502 442.797C444.909 442.424 444.938 441.791 444.565 441.384C444.193 440.976 443.56 440.948 443.152 441.32L444.502 442.797ZM431.743 451.353C431.321 451.71 431.269 452.341 431.626 452.763C431.983 453.184 432.614 453.236 433.035 452.88L431.743 451.353ZM421.284 462.473C421.718 462.131 421.792 461.502 421.451 461.068C421.109 460.634 420.48 460.56 420.046 460.901L421.284 462.473ZM407.99 470.066C407.545 470.393 407.449 471.019 407.775 471.464C408.102 471.909 408.728 472.005 409.173 471.678L407.99 470.066ZM396.766 480.482C397.221 480.17 397.337 479.547 397.025 479.092C396.712 478.636 396.09 478.52 395.635 478.833L396.766 480.482ZM383.034 487.197C382.569 487.496 382.434 488.115 382.733 488.579C383.031 489.044 383.65 489.178 384.115 488.88L383.034 487.197ZM371.198 496.917C371.671 496.632 371.823 496.017 371.538 495.544C371.253 495.071 370.638 494.919 370.165 495.204L371.198 496.917ZM357.856 504.518C357.461 504.904 357.453 505.537 357.839 505.932C358.224 506.327 358.858 506.335 359.253 505.949L357.856 504.518ZM348.989 516.421C349.366 516.018 349.345 515.385 348.942 515.008C348.538 514.63 347.906 514.651 347.528 515.055L348.989 516.421ZM337.731 526.098C337.377 526.521 337.432 527.151 337.855 527.506C338.278 527.861 338.909 527.806 339.264 527.383L337.731 526.098ZM330.194 538.917C330.521 538.472 330.424 537.846 329.979 537.519C329.534 537.193 328.908 537.289 328.581 537.734L330.194 538.917ZM320.262 550.04C319.972 550.51 320.117 551.126 320.587 551.416C321.057 551.707 321.673 551.561 321.963 551.091L320.262 550.04ZM314.833 563.938C315.077 563.442 314.872 562.843 314.376 562.599C313.881 562.356 313.281 562.56 313.038 563.056L314.833 563.938ZM307.254 576.767C307.07 577.288 307.344 577.858 307.865 578.042C308.386 578.225 308.957 577.951 309.14 577.43L307.254 576.767ZM305.267 591.461C305.375 590.919 305.023 590.392 304.482 590.285C303.94 590.177 303.413 590.528 303.305 591.07L305.267 591.461ZM301.573 605.888C301.555 606.44 301.988 606.902 302.54 606.92C303.092 606.938 303.554 606.506 303.572 605.954L301.573 605.888ZM304.358 620.484C304.28 619.937 303.773 619.557 303.226 619.635C302.68 619.713 302.3 620.22 302.378 620.767L304.358 620.484ZM305.761 635.288C305.932 635.813 306.496 636.101 307.021 635.93C307.546 635.76 307.834 635.195 307.663 634.67L305.761 635.288ZM313.262 648.151C313.012 647.659 312.41 647.462 311.918 647.712C311.425 647.962 311.229 648.564 311.479 649.057L313.262 648.151ZM319.093 661.825C319.405 662.28 320.028 662.396 320.483 662.083C320.939 661.771 321.054 661.148 320.741 660.693L319.093 661.825ZM329.712 672.294C329.352 671.875 328.72 671.828 328.302 672.188C327.883 672.549 327.836 673.18 328.196 673.599L329.712 672.294ZM338.379 684.38C338.775 684.765 339.408 684.756 339.793 684.36C340.178 683.964 340.169 683.331 339.773 682.946L338.379 684.38ZM350.696 692.793C350.273 692.438 349.642 692.492 349.287 692.915C348.932 693.338 348.987 693.969 349.41 694.324L350.696 692.793ZM361.04 703.497C361.483 703.826 362.109 703.734 362.439 703.29C362.768 702.847 362.676 702.221 362.233 701.891L361.04 703.497ZM374.266 710.364C373.807 710.057 373.186 710.181 372.879 710.64C372.572 711.099 372.695 711.72 373.154 712.027L374.266 710.364ZM385.636 719.997C386.107 720.285 386.723 720.136 387.01 719.665C387.298 719.193 387.149 718.578 386.678 718.29L385.636 719.997ZM399.389 725.743C398.908 725.472 398.298 725.642 398.026 726.123C397.755 726.604 397.925 727.214 398.406 727.485L399.389 725.743ZM411.397 734.556C411.886 734.813 412.49 734.625 412.748 734.137C413.005 733.648 412.817 733.043 412.328 732.786L411.397 734.556ZM425.467 739.489C424.972 739.243 424.372 739.446 424.127 739.941C423.882 740.436 424.084 741.036 424.579 741.281L425.467 739.489ZM437.9 747.71C438.399 747.945 438.995 747.731 439.23 747.231C439.466 746.731 439.251 746.135 438.752 745.9L437.9 747.71ZM452.145 752.078C451.641 751.85 451.049 752.074 450.821 752.577C450.593 753.08 450.817 753.672 451.32 753.9L452.145 752.078ZM1 1C0.547653 1.89184 0.547769 1.8919 0.547893 1.89196C0.547944 1.89199 0.548076 1.89206 0.548179 1.89211C0.548386 1.89221 0.548624 1.89233 0.548893 1.89247C0.549431 1.89274 0.550095 1.89308 0.550884 1.89348C0.552462 1.89427 0.554543 1.89532 0.557128 1.89662C0.562298 1.89922 0.569485 1.90282 0.578708 1.9074C0.597154 1.91658 0.623741 1.92972 0.65861 1.94674C0.728349 1.98077 0.831217 2.03032 0.968345 2.09471C1.2426 2.22349 1.6539 2.41162 2.21127 2.65373C3.32601 3.13794 5.02512 3.83807 7.38089 4.71101L8.07582 2.83562C5.75293 1.97487 4.08786 1.28833 3.00809 0.819313C2.46821 0.584804 2.07466 0.404678 1.81839 0.284347C1.69026 0.224182 1.59644 0.178966 1.53581 0.149375C1.5055 0.13458 1.48348 0.123691 1.46961 0.116793C1.46268 0.113344 1.45779 0.110893 1.45492 0.109451C1.45348 0.108729 1.45255 0.10826 1.45212 0.108044C1.45191 0.107936 1.45182 0.107891 1.45186 0.10791C1.45188 0.10792 1.45193 0.107945 1.45201 0.107986C1.45205 0.108007 1.45213 0.10805 1.45215 0.10806C1.45225 0.108107 1.45235 0.108158 1 1ZM21.4442 9.30735C25.4872 10.492 30.1859 11.7736 35.5985 13.1174L36.0804 11.1763C30.6937 9.83891 26.0219 8.56455 22.0065 7.38805L21.4442 9.30735ZM49.9298 16.4318C54.392 17.3945 59.203 18.3731 64.381 19.3569L64.7543 17.392C59.5921 16.4112 54.7972 15.4359 50.3516 14.4768L49.9298 16.4318ZM78.8213 21.9428C83.4441 22.7229 88.3073 23.5005 93.4197 24.2699L93.7174 22.2922C88.6164 21.5245 83.765 20.7488 79.1542 19.9706L78.8213 21.9428ZM107.924 26.336C112.592 26.9648 117.441 27.5846 122.476 28.1922L122.715 26.2066C117.689 25.6001 112.85 24.9815 108.191 24.3539L107.924 26.336ZM137.069 29.8596C141.794 30.3702 146.667 30.8692 151.691 31.3544L151.883 29.3636C146.867 28.8791 142.002 28.3809 137.284 27.8711L137.069 29.8596ZM166.341 32.6914C171.111 33.102 176.006 33.5 181.027 33.8836L181.179 31.8894C176.164 31.5062 171.276 31.1088 166.512 30.6987L166.341 32.6914ZM195.691 34.9375C200.45 35.2584 205.314 35.5665 210.286 35.8606L210.404 33.8641C205.438 33.5703 200.579 33.2626 195.826 32.942L195.691 34.9375ZM224.929 36.6691C229.74 36.9162 234.645 37.1502 239.645 37.3703L239.733 35.3722C234.737 35.1523 229.838 34.9185 225.032 34.6717L224.929 36.6691ZM254.376 37.9672C259.157 38.1445 264.02 38.3092 268.967 38.4607L269.028 36.4616C264.085 36.3103 259.227 36.1457 254.451 35.9686L254.376 37.9672ZM283.675 38.8649C288.514 38.9831 293.429 39.0887 298.421 39.1811L298.458 37.1815C293.47 37.0891 288.559 36.9836 283.724 36.8655L283.675 38.8649ZM313.017 39.4105C317.869 39.4734 322.792 39.5241 327.785 39.562L327.8 37.562C322.81 37.5241 317.892 37.4735 313.042 37.4107L313.017 39.4105ZM342.417 39.6356C344.889 39.6418 347.377 39.6449 349.883 39.6449V37.6449C347.379 37.6449 344.892 37.6418 342.422 37.6356L342.417 39.6356ZM349.883 39.6449C352.425 39.6449 354.955 39.6983 357.472 39.8041L357.556 37.8058C355.011 37.6989 352.453 37.6449 349.883 37.6449V39.6449ZM372.497 41.0701C377.517 41.7075 382.474 42.5546 387.361 43.6024L387.78 41.6469C382.838 40.5872 377.825 39.7306 372.749 39.086L372.497 41.0701ZM401.96 47.3876C406.787 48.8601 411.534 50.5321 416.192 52.3943L416.935 50.5372C412.225 48.6543 407.425 46.9637 402.544 45.4746L401.96 47.3876ZM429.963 58.5772C434.467 60.8286 438.874 63.2636 443.176 65.8729L444.213 64.1629C439.865 61.5256 435.411 59.0642 430.857 56.7882L429.963 58.5772ZM455.755 74.2137C459.83 77.1569 463.792 80.2645 467.633 83.5271L468.927 82.0028C465.047 78.7065 461.044 75.5666 456.926 72.5924L455.755 74.2137ZM478.751 93.7377C482.317 97.2744 485.756 100.955 489.059 104.769L490.571 103.46C487.235 99.6074 483.762 95.8902 480.16 92.3177L478.751 93.7377ZM498.512 116.546C501.506 120.575 504.361 124.726 507.069 128.991L508.757 127.92C506.023 123.613 503.141 119.421 500.117 115.353L498.512 116.546ZM514.695 142.032C517.07 146.453 519.295 150.977 521.362 155.593L523.187 154.776C521.101 150.116 518.855 145.549 516.457 141.085L514.695 142.032ZM527.034 169.586C528.749 174.293 530.306 179.082 531.696 183.944L533.619 183.394C532.216 178.486 530.645 173.652 528.913 168.902L527.034 169.586ZM535.333 198.597C536.367 203.494 537.235 208.455 537.932 213.472L539.913 213.197C539.21 208.134 538.333 203.127 537.29 198.184L535.333 198.597ZM539.488 228.499C539.83 233.492 540.003 238.532 540 243.61L542 243.611C542.003 238.487 541.828 233.402 541.483 228.362L539.488 228.499ZM539.476 258.722C539.134 263.694 538.623 268.696 537.937 273.721L539.919 273.992C540.611 268.922 541.126 263.875 541.471 258.859L539.476 258.722ZM535.407 288.598C534.41 293.485 533.245 298.388 531.909 303.303L533.839 303.827C535.187 298.872 536.361 293.927 537.366 288.998L535.407 288.598ZM527.473 317.796C525.871 322.499 524.108 327.208 522.18 331.916L524.031 332.674C525.974 327.928 527.751 323.182 529.366 318.441L527.473 317.796ZM516.058 345.696C513.903 350.191 511.594 354.681 509.126 359.162L510.878 360.127C513.364 355.613 515.69 351.09 517.861 346.561L516.058 345.696ZM501.457 372.232C498.84 376.432 496.079 380.619 493.171 384.792L494.812 385.935C497.739 381.735 500.519 377.519 503.155 373.29L501.457 372.232ZM484.197 397.012C481.154 400.95 477.976 404.872 474.659 408.773L476.183 410.069C479.52 406.144 482.717 402.198 485.779 398.235L484.197 397.012ZM464.652 420.029C461.239 423.702 457.7 427.354 454.03 430.983L455.437 432.405C459.126 428.757 462.685 425.084 466.117 421.39L464.652 420.029ZM443.152 441.32C439.467 444.688 435.664 448.033 431.743 451.353L433.035 452.88C436.975 449.544 440.797 446.182 444.502 442.797L443.152 441.32ZM420.046 460.901C416.135 463.981 412.117 467.037 407.99 470.066L409.173 471.678C413.318 468.636 417.354 465.567 421.284 462.473L420.046 460.901ZM395.635 478.833C391.533 481.646 387.333 484.435 383.034 487.197L384.115 488.88C388.431 486.107 392.647 483.307 396.766 480.482L395.635 478.833ZM370.165 495.204C367.973 496.525 365.756 497.84 363.515 499.147L364.524 500.875C366.772 499.562 368.997 498.243 371.198 496.917L370.165 495.204ZM363.336 499.281C361.461 501.036 359.635 502.782 357.856 504.518L359.253 505.949C361.022 504.223 362.838 502.487 364.703 500.741L363.336 499.281ZM347.528 515.055C344.044 518.78 340.781 522.461 337.731 526.098L339.264 527.383C342.289 523.775 345.528 520.121 348.989 516.421L347.528 515.055ZM328.581 537.734C325.529 541.896 322.76 545.997 320.262 550.04L321.963 551.091C324.432 547.096 327.171 543.039 330.194 538.917L328.581 537.734ZM313.038 563.056C310.753 567.708 308.832 572.278 307.254 576.767L309.14 577.43C310.691 573.02 312.581 568.523 314.833 563.938L313.038 563.056ZM303.305 591.07C302.3 596.12 301.733 601.058 301.573 605.888L303.572 605.954C303.729 601.236 304.282 596.406 305.267 591.461L303.305 591.07ZM302.378 620.767C303.088 625.736 304.231 630.576 305.761 635.288L307.663 634.67C306.167 630.063 305.051 625.336 304.358 620.484L302.378 620.767ZM311.479 649.057C313.7 653.434 316.253 657.69 319.093 661.825L320.741 660.693C317.947 656.624 315.441 652.444 313.262 648.151L311.479 649.057ZM328.196 673.599C331.38 677.296 334.786 680.889 338.379 684.38L339.773 682.946C336.219 679.492 332.854 675.942 329.712 672.294L328.196 673.599ZM349.41 694.324C353.157 697.471 357.044 700.528 361.04 703.497L362.233 701.891C358.266 698.944 354.411 695.912 350.696 692.793L349.41 694.324ZM373.154 712.027C377.248 714.765 381.418 717.422 385.636 719.997L386.678 718.29C382.482 715.728 378.335 713.086 374.266 710.364L373.154 712.027ZM398.406 727.485C402.727 729.922 407.067 732.278 411.397 734.556L412.328 732.786C408.013 730.516 403.69 728.169 399.389 725.743L398.406 727.485ZM424.579 741.281C429.074 743.507 433.525 745.649 437.9 747.71L438.752 745.9C434.388 743.845 429.948 741.708 425.467 739.489L424.579 741.281ZM451.32 753.9C453.591 754.928 455.828 755.932 458.027 756.913L458.842 755.087C456.646 754.107 454.412 753.104 452.145 752.078L451.32 753.9Z" fill="#53F3FB" fill-opacity="0.3"/>
</svg>
