<svg xmlns="http://www.w3.org/2000/svg" id="Capa_1" height="512" viewBox="0 0 512 512" width="512"><g><path d="m79.384 326.459-79.384 79.838 63.669 21.035 79.804-79.805z"></path><path d="m84.668 448.331 21.035 63.669 79.838-79.384-21.068-64.089z"></path><path d="m420.692 112.519 26.675 42.305 64.633-154.824-154.823 64.633 42.305 26.675-16.816 16.816c-34.13-29.288-78.346-47.124-126.666-47.124-107.401 0-195 87.599-195 195 0 14.099 2.1 27.9 4.799 41.4l5.402-5.099 62.823 20.614c-8.137-17.355-13.024-36.512-13.024-56.915 0-74.443 60.557-135 135-135s135 60.557 135 135-60.557 135-135 135c-20.403 0-39.56-4.887-56.915-13.024l20.614 62.823-5.099 5.402c13.5 2.699 27.301 4.799 41.4 4.799 107.401 0 195-87.599 195-195 0-48.32-17.836-92.536-47.124-126.665z"></path><path d="m256 361c57.891 0 105-47.109 105-105s-47.109-105-105-105-105 47.109-105 105c0 23.589 8.108 45.152 21.295 62.704l21.275-21.273c-7.912-11.883-12.57-26.116-12.57-41.431 0-41.353 33.647-75 75-75s75 33.647 75 75-33.647 75-75 75c-15.315 0-29.548-4.658-41.431-12.57l-21.273 21.275c17.552 13.187 39.115 21.295 62.704 21.295z"></path><path d="m256 301c24.814 0 45-20.186 45-45s-20.186-45-45-45-45 20.186-45 45c0 6.982 1.734 13.513 4.583 19.417l29.918-29.916 20.999 20.999-29.916 29.918c5.903 2.848 12.434 4.582 19.416 4.582z"></path></g></svg>