<?xml version="1.0" encoding="UTF-8"?>
<!DOCTYPE svg PUBLIC "-//W3C//DTD SVG 1.1//EN" "http://www.w3.org/Graphics/SVG/1.1/DTD/svg11.dtd">
<!-- Creator: CorelDRAW 2019 (64-Bit) -->
<svg xmlns="http://www.w3.org/2000/svg" xml:space="preserve" width="75.8179mm" height="94.9836mm" version="1.1" style="shape-rendering:geometricPrecision; text-rendering:geometricPrecision; image-rendering:optimizeQuality; fill-rule:evenodd; clip-rule:evenodd"
viewBox="0 0 7411.76 9285.35"
 xmlns:xlink="http://www.w3.org/1999/xlink"
 xmlns:xodm="http://www.corel.com/coreldraw/odm/2003">
 <defs>
  <style type="text/css">
   <![CDATA[
    .str0 {stroke:#00AFF0;strokeWidth:137.95;stroke-miterlimit:10}
    .fil1 {fill:none;fill-rule:nonzero}
    .fil0 {fill:#00AFF0;fill-rule:nonzero}
    .fil2 {fill:#FFFCFF;fill-rule:nonzero}
   ]]>
  </style>
 </defs>
 <g id="Layer_x0020_1">
  <metadata id="CorelCorpID_0Corel-Layer"/>
  <g id="_2766671648992">
   <path class="fil0" d="M385.79 1276.55l3281.81 -941.29c35.8,-10.27 73.73,-10.27 109.53,-0.03l3290.43 941.32c0,0 364.77,2380.99 -496.26,4603.5 -46.52,120.11 -98.71,237.65 -153.33,354.28 -207.92,443.95 -906.96,1928.11 -2702.05,2665.88 0,0 -1618.11,-571.06 -2639.5,-2497.9 -385.95,-728.12 -611.21,-1530.45 -680.39,-2351.63 -67.77,-804.72 -150.63,-2155.56 -10.24,-2774.14z"/>
   <path class="fil1 str0" d="M164.37 1081.35l3468.35 -1004.53c35.94,-10.41 74.08,-10.48 110.08,-0.21l3511.96 1004.73c0,0 386.11,2406.65 -458.19,4844.57 -44.93,129.77 -119.12,334.56 -177.36,458.95 -221.68,473.36 -788.88,1758.81 -2938.39,2825.73 0,0 -1725.4,-608.96 -2814.52,-2663.58 -411.53,-776.43 -651.69,-1631.9 -725.5,-2507.55 -72.28,-858.07 -126.15,-2298.53 23.56,-2958.13z"/>
   <path class="fil2" d="M4994.05 6475.39l-416.01 -624.03c-11.07,-16.55 -0.79,-38.94 19,-41.04 216.4,-22.97 1158.81,-191.02 1207.44,-1378.25 0,-699.97 -567.44,-1267.39 -1267.38,-1267.39l-3336.59 0 -534.54 -724.22 4224.61 0c0,0 1724.32,319 1612.24,2060.58 0,0 34.49,1517.4 -1508.79,1974.35z"/>
   <path class="fil2" d="M1450.56 3440.58l2233 0 34.49 0c983.27,64.66 982.86,1000.11 982.86,1000.11 1.27,435.38 -402.11,974.24 -844.92,974.24l807.91 1046.98c15.11,19.58 1.14,47.97 -23.55,47.97l-804.08 0c-9.31,0 -18.07,-4.35 -23.69,-11.76l-1200 -1579.35c-52.28,-68.8 -3.21,-167.71 83.22,-167.71l823.95 0c176.16,0 319,-142.83 319,-318.99 0,-176.16 -142.84,-319 -319,-319l-1595 0 -474.19 -672.48z"/>
  </g>
 </g>
</svg>
