<svg width="494" height="611" viewBox="0 0 494 611" fill="none" xmlns="http://www.w3.org/2000/svg">
<path d="M451 116.5L451.54 115.659L451 116.5ZM469.674 610.445C470.197 610.625 470.766 610.348 470.945 609.826C471.125 609.303 470.848 608.734 470.326 608.555L469.674 610.445ZM7.66761 17.7876C8.18823 17.6033 8.46086 17.0318 8.27654 16.5112C8.09222 15.9906 7.52076 15.7179 7.00014 15.9023L7.66761 17.7876ZM21.2798 11.4765C20.7469 11.6217 20.4327 12.1714 20.5779 12.7042C20.7232 13.2371 21.2729 13.5513 21.8057 13.4061L21.2798 11.4765ZM36.2229 9.91988C36.763 9.80468 37.1075 9.27342 36.9923 8.73329C36.8771 8.19315 36.3458 7.84867 35.8057 7.96387L36.2229 9.91988ZM50.545 5.19992C49.9999 5.28874 49.63 5.80263 49.7188 6.34773C49.8077 6.89282 50.3216 7.26271 50.8667 7.17389L50.545 5.19992ZM65.5058 5.1207C66.0542 5.05581 66.4462 4.55859 66.3814 4.01013C66.3165 3.46168 65.8192 3.06966 65.2708 3.13455L65.5058 5.1207ZM80.1731 1.6835C79.6224 1.72588 79.2104 2.20663 79.2528 2.75729C79.2952 3.30795 79.7759 3.71998 80.3266 3.6776L80.1731 1.6835ZM95.1923 2.82389C95.7442 2.80276 96.1745 2.33824 96.1533 1.78636C96.1322 1.23448 95.6677 0.804227 95.1158 0.825359L95.1923 2.82389ZM109.999 0.528697C109.447 0.529736 109 0.978293 109.001 1.53058C109.002 2.08286 109.451 2.52973 110.003 2.52869L109.999 0.528697ZM124.84 2.76083C125.392 2.779 125.855 2.34626 125.873 1.79427C125.891 1.24229 125.458 0.780083 124.906 0.76191L124.84 2.76083ZM139.811 1.50338C139.26 1.46681 138.784 1.88389 138.747 2.43497C138.71 2.98604 139.127 3.46242 139.679 3.49899L139.811 1.50338ZM154.502 4.72341C155.052 4.77764 155.542 4.37604 155.596 3.82642C155.65 3.27681 155.248 2.7873 154.699 2.73308L154.502 4.72341ZM169.531 4.42897C168.983 4.35783 168.481 4.74415 168.41 5.29184C168.339 5.83952 168.725 6.34117 169.273 6.41231L169.531 4.42897ZM183.924 8.53727C184.469 8.62456 184.982 8.25324 185.069 7.70789C185.157 7.16255 184.785 6.6497 184.24 6.56241L183.924 8.53727ZM198.895 9.12425C198.352 9.02144 197.829 9.37799 197.726 9.92062C197.623 10.4633 197.98 10.9865 198.522 11.0893L198.895 9.12425ZM213.074 14.0559C213.614 14.1737 214.147 13.8317 214.264 13.2921C214.382 12.7525 214.04 12.2196 213.501 12.1019L213.074 14.0559ZM228.067 15.4854C227.531 15.3534 226.989 15.681 226.857 16.2173C226.725 16.7535 227.053 17.2953 227.589 17.4274L228.067 15.4854ZM241.995 21.1741C242.528 21.3199 243.078 21.0063 243.224 20.4736C243.37 19.9409 243.056 19.3909 242.523 19.245L241.995 21.1741ZM256.783 23.3396C256.254 23.1807 255.696 23.4806 255.537 24.0096C255.378 24.5385 255.678 25.0961 256.207 25.255L256.783 23.3396ZM270.396 29.7056C270.921 29.8771 271.486 29.5906 271.657 29.0657C271.829 28.5407 271.542 27.9761 271.018 27.8045L270.396 29.7056ZM285.219 32.6299C284.698 32.4462 284.127 32.7195 283.943 33.2403C283.759 33.7611 284.032 34.3323 284.553 34.516L285.219 32.6299ZM298.412 39.5793C298.929 39.7745 299.506 39.514 299.701 38.9974C299.897 38.4807 299.636 37.9037 299.119 37.7084L298.412 39.5793ZM313.026 43.1372C312.514 42.9309 311.932 43.1789 311.725 43.6912C311.519 44.2035 311.767 44.786 312.279 44.9924L313.026 43.1372ZM326.04 50.7042C326.548 50.9212 327.135 50.6854 327.352 50.1776C327.569 49.6697 327.334 49.0821 326.826 48.8651L326.04 50.7042ZM340.405 54.8305C339.902 54.6033 339.31 54.8273 339.082 55.3307C338.855 55.8341 339.079 56.4263 339.583 56.6535L340.405 54.8305ZM353.173 62.9486C353.672 63.1856 354.269 62.9733 354.506 62.4745C354.743 61.9756 354.53 61.3791 354.031 61.1421L353.173 62.9486ZM367.331 67.6148C366.837 67.3685 366.236 67.5696 365.99 68.0639C365.744 68.5582 365.945 69.1586 366.439 69.4049L367.331 67.6148ZM379.733 76.182C380.223 76.4373 380.827 76.2473 381.082 75.7576C381.338 75.2678 381.148 74.6638 380.658 74.4086L379.733 76.182ZM393.773 81.3936C393.288 81.1297 392.681 81.3091 392.417 81.7943C392.153 82.2795 392.332 82.8867 392.818 83.1506L393.773 81.3936ZM405.83 90.3728C406.31 90.6449 406.92 90.4759 407.193 89.9953C407.465 89.5147 407.296 88.9045 406.815 88.6324L405.83 90.3728ZM419.716 96.0789C419.24 95.7989 418.627 95.9578 418.347 96.4338C418.067 96.9099 418.226 97.5228 418.702 97.8028L419.716 96.0789ZM431.452 105.441C431.923 105.729 432.538 105.58 432.826 105.108C433.114 104.637 432.965 104.021 432.493 103.734L431.452 105.441ZM445.155 111.592C444.688 111.298 444.07 111.437 443.775 111.904C443.481 112.371 443.62 112.989 444.087 113.283L445.155 111.592ZM456.977 121.746C457.427 122.066 458.051 121.962 458.372 121.512C458.692 121.062 458.587 120.438 458.138 120.117L456.977 121.746ZM469.615 129.264C469.204 128.894 468.572 128.927 468.202 129.338C467.833 129.748 467.866 130.381 468.277 130.75L469.615 129.264ZM478.506 141.508C478.85 141.94 479.48 142.011 479.912 141.667C480.343 141.323 480.415 140.694 480.07 140.262L478.506 141.508ZM488.164 153.053C487.927 152.554 487.33 152.343 486.831 152.58C486.333 152.818 486.121 153.415 486.359 153.913L488.164 153.053ZM490.759 167.78C490.849 168.325 491.365 168.693 491.909 168.602C492.454 168.512 492.822 167.997 492.732 167.452L490.759 167.78ZM493.092 182.589C493.153 182.04 492.758 181.545 492.209 181.485C491.66 181.424 491.165 181.819 491.105 182.368L493.092 182.589ZM487.832 196.697C487.655 197.22 487.935 197.788 488.458 197.965C488.981 198.143 489.549 197.862 489.726 197.339L487.832 196.697ZM483.764 211.15C484.019 210.66 483.828 210.056 483.338 209.802C482.847 209.547 482.244 209.738 481.989 210.229L483.764 211.15ZM474.472 222.929C474.168 223.389 474.295 224.01 474.755 224.314C475.216 224.618 475.837 224.492 476.141 224.031L474.472 222.929ZM467.419 236.182C467.757 235.745 467.676 235.117 467.239 234.78C466.801 234.442 466.173 234.523 465.836 234.96L467.419 236.182ZM456.413 246.493C456.053 246.912 456.1 247.544 456.519 247.903C456.938 248.263 457.569 248.216 457.929 247.797L456.413 246.493ZM447.891 259.013C448.266 258.608 448.243 257.975 447.838 257.599C447.433 257.224 446.8 257.247 446.425 257.652L447.891 259.013ZM436.141 268.418C435.755 268.812 435.761 269.445 436.156 269.832C436.55 270.219 437.183 270.212 437.57 269.818L436.141 268.418ZM427.021 280.367C427.415 279.98 427.42 279.347 427.033 278.953C426.646 278.559 426.013 278.553 425.619 278.94L427.021 280.367ZM414.874 289.355C414.475 289.737 414.462 290.37 414.844 290.769C415.226 291.168 415.859 291.181 416.258 290.799L414.874 289.355ZM405.426 301.099C405.828 300.72 405.845 300.087 405.466 299.686C405.087 299.284 404.454 299.266 404.052 299.646L405.426 301.099ZM393.193 309.886C392.791 310.264 392.772 310.897 393.151 311.299C393.529 311.701 394.162 311.72 394.564 311.341L393.193 309.886ZM383.694 321.604C384.095 321.224 384.112 320.592 383.732 320.191C383.352 319.79 382.719 319.773 382.319 320.153L383.694 321.604ZM371.514 330.466C371.116 330.849 371.104 331.482 371.487 331.88C371.87 332.278 372.503 332.29 372.901 331.907L371.514 330.466ZM362.193 342.34C362.586 341.952 362.59 341.319 362.202 340.926C361.814 340.533 361.181 340.529 360.788 340.917L362.193 342.34ZM350.254 351.506C349.868 351.902 349.876 352.535 350.271 352.92C350.666 353.306 351.299 353.298 351.685 352.903L350.254 351.506ZM341.403 363.694C341.779 363.29 341.755 362.657 341.35 362.281C340.945 361.905 340.313 361.929 339.937 362.334L341.403 363.694ZM329.892 373.501C329.53 373.917 329.574 374.549 329.991 374.911C330.408 375.274 331.039 375.229 331.402 374.812L329.892 373.501ZM321.877 386.231C322.222 385.799 322.151 385.17 321.719 384.826C321.287 384.481 320.658 384.552 320.314 384.984L321.877 386.231ZM311.331 396.874C311.011 397.324 311.116 397.948 311.566 398.268C312.016 398.589 312.641 398.484 312.961 398.034L311.331 396.874ZM304.716 410.502C305.003 410.031 304.853 409.415 304.381 409.128C303.91 408.841 303.294 408.991 303.007 409.463L304.716 410.502ZM295.765 422.655C295.523 423.151 295.73 423.75 296.226 423.992C296.723 424.233 297.321 424.027 297.563 423.53L295.765 422.655ZM291.875 437.171C292.055 436.648 291.777 436.079 291.255 435.899C290.733 435.72 290.164 435.997 289.984 436.519L291.875 437.171ZM286.164 451.05C286.067 451.593 286.429 452.113 286.973 452.21C287.517 452.307 288.036 451.945 288.133 451.401L286.164 451.05ZM286.88 466.028C286.875 465.475 286.422 465.032 285.87 465.038C285.318 465.044 284.875 465.496 284.88 466.048L286.88 466.028ZM286.568 481.059C286.686 481.599 287.218 481.941 287.758 481.824C288.298 481.706 288.64 481.174 288.522 480.634L286.568 481.059ZM293.079 494.667C292.859 494.16 292.27 493.928 291.764 494.149C291.257 494.369 291.025 494.958 291.245 495.464L293.079 494.667ZM298.333 508.584C298.634 509.047 299.253 509.179 299.716 508.878C300.18 508.578 300.312 507.959 300.011 507.495L298.333 508.584ZM308.797 519.189C308.438 518.77 307.806 518.721 307.387 519.08C306.967 519.439 306.918 520.07 307.278 520.49L308.797 519.189ZM317.788 531.47C318.189 531.849 318.822 531.831 319.201 531.429C319.58 531.028 319.562 530.395 319.16 530.016L317.788 531.47ZM330.263 539.634C329.832 539.289 329.202 539.359 328.858 539.79C328.513 540.221 328.583 540.851 329.014 541.196L330.263 539.634ZM340.982 550.119C341.435 550.435 342.059 550.324 342.375 549.871C342.691 549.418 342.58 548.795 342.127 548.479L340.982 550.119ZM354.61 556.684C354.141 556.392 353.524 556.536 353.233 557.006C352.942 557.475 353.086 558.091 353.555 558.383L354.61 556.684ZM366.375 565.95C366.857 566.22 367.466 566.049 367.737 565.568C368.008 565.086 367.837 564.477 367.355 564.206L366.375 565.95ZM380.393 571.216C379.902 570.963 379.299 571.156 379.046 571.647C378.793 572.138 378.986 572.741 379.477 572.994L380.393 571.216ZM393.174 579.768C393.673 580.005 394.269 579.793 394.506 579.294C394.743 578.796 394.531 578.199 394.033 577.962L393.174 579.768ZM407.149 583.986C406.644 583.762 406.053 583.99 405.829 584.494C405.605 584.999 405.832 585.59 406.337 585.814L407.149 583.986ZM420.385 591.849C420.895 592.061 421.48 591.819 421.692 591.309C421.904 590.799 421.663 590.214 421.153 590.002L420.385 591.849ZM434.886 595.547C434.372 595.345 433.792 595.599 433.59 596.113C433.388 596.627 433.642 597.207 434.156 597.409L434.886 595.547ZM447.83 602.631C448.347 602.823 448.923 602.56 449.116 602.042C449.308 601.525 449.045 600.949 448.527 600.756L447.83 602.631ZM462.879 605.957C462.358 605.773 461.787 606.046 461.603 606.567C461.419 607.088 461.692 607.659 462.213 607.843L462.879 605.957ZM0.5 19.5C0.914737 20.4099 0.914673 20.41 0.914618 20.41C0.914611 20.41 0.914565 20.41 0.914551 20.41C0.914524 20.41 0.914533 20.41 0.914577 20.41C0.914664 20.41 0.914893 20.4099 0.915263 20.4097C0.916003 20.4094 0.917308 20.4088 0.919176 20.4079C0.922913 20.4062 0.928906 20.4035 0.937152 20.3998C0.953644 20.3924 0.979147 20.381 1.01363 20.3657C1.0826 20.3351 1.18751 20.289 1.32812 20.2285C1.60935 20.1073 2.03341 19.9282 2.59852 19.699C3.72876 19.2406 5.4232 18.5822 7.66761 17.7876L7.00014 15.9023C4.72661 16.7072 3.00411 17.3763 1.8469 17.8456C1.26829 18.0802 0.830993 18.2649 0.536795 18.3917C0.389696 18.455 0.278371 18.5039 0.203041 18.5373C0.165377 18.554 0.136711 18.5669 0.117072 18.5757C0.107252 18.5801 0.0996895 18.5835 0.0943868 18.5859C0.0917355 18.5871 0.0896491 18.5881 0.0881283 18.5888C0.0873679 18.5891 0.0867488 18.5894 0.0862712 18.5896C0.0860324 18.5897 0.0858289 18.5898 0.0856608 18.5899C0.0855768 18.5899 0.0854772 18.59 0.0854352 18.59C0.0853445 18.59 0.0852627 18.5901 0.5 19.5ZM21.8057 13.4061C26.0041 12.2618 30.8158 11.0731 36.2229 9.91988L35.8057 7.96387C30.3611 9.12511 25.5132 10.3227 21.2798 11.4765L21.8057 13.4061ZM50.8667 7.17389C55.449 6.42721 60.3309 5.73294 65.5058 5.1207L65.2708 3.13455C60.0665 3.75028 55.1557 4.44863 50.545 5.19992L50.8667 7.17389ZM80.3266 3.6776C85.0834 3.3115 90.0399 3.02119 95.1923 2.82389L95.1158 0.825359C89.9374 1.02365 84.9552 1.31544 80.1731 1.6835L80.3266 3.6776ZM110.003 2.52869C114.804 2.51966 119.75 2.59325 124.84 2.76083L124.906 0.76191C119.793 0.593565 114.823 0.51962 109.999 0.528697L110.003 2.52869ZM139.679 3.49899C144.506 3.81938 149.448 4.22475 154.502 4.72341L154.699 2.73308C149.623 2.23231 144.66 1.82518 139.811 1.50338L139.679 3.49899ZM169.273 6.41231C174.065 7.03477 178.949 7.741 183.924 8.53727L184.24 6.56241C179.246 5.76302 174.342 5.05396 169.531 4.42897L169.273 6.41231ZM198.522 11.0893C203.297 11.9939 208.148 12.9811 213.074 14.0559L213.501 12.1019C208.556 11.0231 203.687 10.0322 198.895 9.12425L198.522 11.0893ZM227.589 17.4274C232.326 18.5942 237.129 19.8418 241.995 21.1741L242.523 19.245C237.64 17.9082 232.821 16.6564 228.067 15.4854L227.589 17.4274ZM256.207 25.255C260.882 26.6596 265.612 28.142 270.396 29.7056L271.018 27.8045C266.218 26.2359 261.473 24.7488 256.783 23.3396L256.207 25.255ZM284.553 34.516C289.126 36.129 293.746 37.8159 298.412 39.5793L299.119 37.7084C294.439 35.9398 289.805 34.2479 285.219 32.6299L284.553 34.516ZM312.279 44.9924C316.824 46.8232 321.411 48.7263 326.04 50.7042L326.826 48.8651C322.184 46.8817 317.585 44.9733 313.026 43.1372L312.279 44.9924ZM339.583 56.6535C344.076 58.681 348.606 60.7786 353.173 62.9486L354.031 61.1421C349.453 58.9666 344.91 56.8634 340.405 54.8305L339.583 56.6535ZM366.439 69.4049C370.838 71.5966 375.27 73.855 379.733 76.182L380.658 74.4086C376.183 72.0759 371.741 69.8119 367.331 67.6148L366.439 69.4049ZM392.818 83.1506C397.126 85.4938 401.464 87.9007 405.83 90.3728L406.815 88.6324C402.439 86.1547 398.092 83.7423 393.773 81.3936L392.818 83.1506ZM418.702 97.8028C422.926 100.288 427.176 102.833 431.452 105.441L432.493 103.734C428.208 101.12 423.949 98.5691 419.716 96.0789L418.702 97.8028ZM444.087 113.283C446.205 114.621 448.329 115.973 450.46 117.341L451.54 115.659C449.406 114.288 447.277 112.932 445.155 111.592L444.087 113.283ZM450.46 117.341C452.738 118.804 454.909 120.273 456.977 121.746L458.138 120.117C456.042 118.624 453.844 117.138 451.54 115.659L450.46 117.341ZM468.277 130.75C472.233 134.311 475.63 137.898 478.506 141.508L480.07 140.262C477.118 136.556 473.644 132.89 469.615 129.264L468.277 130.75ZM486.359 153.913C488.542 158.495 489.984 163.117 490.759 167.78L492.732 167.452C491.926 162.601 490.426 157.8 488.164 153.053L486.359 153.913ZM491.105 182.368C490.581 187.093 489.469 191.869 487.832 196.697L489.726 197.339C491.403 192.393 492.551 187.475 493.092 182.589L491.105 182.368ZM481.989 210.229C479.808 214.43 477.289 218.663 474.472 222.929L476.141 224.031C478.99 219.716 481.547 215.422 483.764 211.15L481.989 210.229ZM465.836 234.96C462.886 238.783 459.735 242.628 456.413 246.493L457.929 247.797C461.271 243.909 464.445 240.037 467.419 236.182L465.836 234.96ZM446.425 257.652C443.109 261.225 439.673 264.814 436.141 268.418L437.57 269.818C441.112 266.203 444.56 262.601 447.891 259.013L446.425 257.652ZM425.619 278.94C422.098 282.399 418.51 285.871 414.874 289.355L416.258 290.799C419.898 287.311 423.492 283.833 427.021 280.367L425.619 278.94ZM404.052 299.646C400.453 303.049 396.827 306.462 393.193 309.886L394.564 311.341C398.198 307.918 401.825 304.504 405.426 301.099L404.052 299.646ZM382.319 320.153C378.702 323.581 375.094 327.019 371.514 330.466L372.901 331.907C376.476 328.464 380.08 325.03 383.694 321.604L382.319 320.153ZM360.788 340.917C357.223 344.438 353.706 347.968 350.254 351.506L351.685 352.903C355.127 349.375 358.636 345.854 362.193 342.34L360.788 340.917ZM339.937 362.334C336.489 366.048 333.134 369.77 329.892 373.501L331.402 374.812C334.628 371.1 337.968 367.394 341.403 363.694L339.937 362.334ZM320.314 384.984C317.16 388.939 314.158 392.902 311.331 396.874L312.961 398.034C315.764 394.095 318.744 390.161 321.877 386.231L320.314 384.984ZM303.007 409.463C300.337 413.85 297.911 418.248 295.765 422.655L297.563 423.53C299.679 419.186 302.074 414.843 304.716 410.502L303.007 409.463ZM289.984 436.519C288.319 441.353 287.031 446.197 286.164 451.05L288.133 451.401C288.98 446.659 290.241 441.915 291.875 437.171L289.984 436.519ZM284.88 466.048C284.932 471.049 285.478 476.054 286.568 481.059L288.522 480.634C287.462 475.765 286.93 470.896 286.88 466.028L284.88 466.048ZM291.245 495.464C293.149 499.843 295.501 504.216 298.333 508.584L300.011 507.495C297.236 503.216 294.937 498.939 293.079 494.667L291.245 495.464ZM307.278 520.49C310.416 524.155 313.913 527.816 317.788 531.47L319.16 530.016C315.334 526.406 311.886 522.797 308.797 519.189L307.278 520.49ZM329.014 541.196C332.737 544.173 336.724 547.148 340.982 550.119L342.127 548.479C337.901 545.531 333.95 542.583 330.263 539.634L329.014 541.196ZM353.555 558.383C357.621 560.908 361.893 563.43 366.375 565.95L367.355 564.206C362.897 561.7 358.65 559.192 354.61 556.684L353.555 558.383ZM379.477 572.994C383.866 575.254 388.43 577.512 393.174 579.768L394.033 577.962C389.307 575.715 384.762 573.466 380.393 571.216L379.477 572.994ZM406.337 585.814C410.871 587.828 415.553 589.839 420.385 591.849L421.153 590.002C416.335 587.998 411.668 585.993 407.149 583.986L406.337 585.814ZM434.156 597.409C438.597 599.151 443.154 600.892 447.83 602.631L448.527 600.756C443.862 599.021 439.316 597.285 434.886 595.547L434.156 597.409ZM462.213 607.843C464.67 608.711 467.157 609.578 469.674 610.445L470.326 608.555C467.813 607.689 465.331 606.823 462.879 605.957L462.213 607.843Z" fill="#53F3FB" fill-opacity="0.3"/>
</svg>
