<svg width="285" height="108" viewBox="0 0 285 108" fill="none" xmlns="http://www.w3.org/2000/svg">
<mask id="path-1-inside-1_985_339" fill="white">
<path fill-rule="evenodd" clip-rule="evenodd" d="M285 65.0951C285 56.2846 271.811 50 263 50C246.431 50 233 36.5685 233 20C233 11.5394 227.205 0 218.745 0H20C8.9543 0 0 8.95431 0 20V88C0 99.0457 8.9543 108 20 108H265.949C276.471 108 285 99.4707 285 88.9493V65.0951Z"/>
</mask>
<path fill-rule="evenodd" clip-rule="evenodd" d="M285 65.0951C285 56.2846 271.811 50 263 50C246.431 50 233 36.5685 233 20C233 11.5394 227.205 0 218.745 0H20C8.9543 0 0 8.95431 0 20V88C0 99.0457 8.9543 108 20 108H265.949C276.471 108 285 99.4707 285 88.9493V65.0951Z" fill="url(#paint0_linear_985_339)"/>
<path d="M263 49.5C246.708 49.5 233.5 36.2924 233.5 20H232.5C232.5 36.8447 246.155 50.5 263 50.5V49.5ZM20 0.5H218.745V-0.5H20V0.5ZM0.5 88V20H-0.5V88H0.5ZM265.949 107.5H20V108.5H265.949V107.5ZM284.5 65.0951V88.9493H285.5V65.0951H284.5ZM265.949 108.5C276.747 108.5 285.5 99.7468 285.5 88.9493H284.5C284.5 99.1946 276.195 107.5 265.949 107.5V108.5ZM20 -0.5C8.67816 -0.5 -0.5 8.67816 -0.5 20H0.5C0.5 9.23045 9.23045 0.5 20 0.5V-0.5ZM233.5 20C233.5 15.6706 232.022 10.5781 229.467 6.55902C226.918 2.54888 223.22 -0.5 218.745 -0.5V0.5C222.729 0.5 226.16 3.22081 228.623 7.09551C231.081 10.9612 232.5 15.8687 232.5 20H233.5ZM-0.5 88C-0.5 99.3218 8.67815 108.5 20 108.5V107.5C9.23044 107.5 0.5 98.7696 0.5 88H-0.5ZM263 50.5C267.305 50.5 272.716 52.0414 277.044 54.6709C281.39 57.3112 284.5 60.9534 284.5 65.0951H285.5C285.5 60.4263 282.015 56.521 277.564 53.8163C273.094 51.1009 267.505 49.5 263 49.5V50.5Z" fill="#009CB9" mask="url(#path-1-inside-1_985_339)"/>
<defs>
<linearGradient id="paint0_linear_985_339" x1="-176.823" y1="-76.1401" x2="511.677" y2="140.197" gradientUnits="userSpaceOnUse">
<stop stop-color="#171717"/>
<stop offset="0.0001" stop-color="#323335"/>
<stop offset="0.494792" stop-color="#5A5A5A" stop-opacity="0.2"/>
<stop offset="1" stop-color="#171717"/>
</linearGradient>
</defs>
</svg>
